<ttFont>
          <CharString index="0">
            -1 -10 -9 -3 -10 hhcurveto
            -16 -14 21 14 -2 hvcurveto
            -85 602 0 3 2 vvcurveto
            23 9 7 22 vhcurveto
            7 6 -1 7 hhcurveto
            18 vlineto
            -166 -4 -97 callsubr
            1 10 33 234 vhcurveto
            113 hlineto
            26 -193 0 -2 -2 vvcurveto
            -38 -16 4 -31 -4 vhcurveto
            2 -17 return
          </CharString>
          <CharString index="1">
            -102 callsubr
            hvcurveto
            -63 -5 -63 -64 vvcurveto
            -56 1 -155 90 26 25 17 29 17 vhcurveto
            -1 -17 -1 -18 -18 vvcurveto
            return
          </CharString>
          <CharString index="2">
            108 535 rmoveto
            -92 callgsubr
            75 2 76 4 callsubr
            rlinecurve
            -93 callgsubr
            return
          </CharString>
          <CharString index="3">
            31 117 679 rmoveto
            -89 callgsubr
            227 5 -94 callsubr
            hlineto
            return
          </CharString>
          <CharString index="4">
            14 122 299 rmoveto
            66 -4 60 46 68 vvcurveto
            47 -35 38 -46 14 vhcurveto
            -8 17 -3 20 16 vvcurveto
            43 27 31 44 5 5 0 -1 4 vhcurveto
            3 14 rlineto
            3 -9 -9 1 -9 hhcurveto
            -45 -43 -33 -47 -20 11 -24 12 -16 hvcurveto
            2 -8 -9 1 -8 hhcurveto
            -62 -54 -44 -64 -47 37 -45 52 -13 hvcurveto
            9 -8 12 -10 -12 -27 -35 -16 -25 -33 42 -6 -24 -48 -108 -68 -85 vvcurveto
            -56 51 -42 55 61 46 50 60 31 -16 34 -35 -26 -19 -21 -29 1 vhcurveto
            17 hlineto
            16 9 17 17 26 9 -27 -21 -51 -43 -47 -51 -37 -22 28 36 vhcurveto
            68 102 85 49 35 -42 8 31 25 33 7 29 vvcurveto
            16 -21 15 -14 13 vhcurveto
            10 198 rmoveto
            46 18 -37 -47 -47 -14 -46 -49 -46 -21 43 45 49 15 40 51 hvcurveto
            return
          </CharString>
          <CharString index="5">
            -20 callgsubr
            1 -10 -9 0 -10 hhcurveto
            -15 1 -10 19 13 vvcurveto
            1 372 rlineto
            -68 callgsubr
            -75 2 -92 -1 -108 hvcurveto
            -32 -7 -32 -43 -22 hhcurveto
            -56 6 146 37 83 5 84 1 83 hvcurveto
            -68 callgsubr
            return
          </CharString>
          <CharString index="6">
            150 241 727 rmoveto
            -1 -18 35 1 32 5 3 -45 rlinecurve
            -3 0 -2 -3 vvcurveto
            -34 -533 -63 432 1 callgsubr
            -51 -449 -36 501 rlineto
            2 0 1 2 vvcurveto
            13 5 19 16 vhcurveto
            10 10 0 11 -6 callgsubr
            3 callgsubr
            -18 vlineto
            44 9 6 -44 6 hvcurveto
            44 -572 rlineto
            -2 1 -2 -1 vvcurveto
            -14 -8 -6 -14 vhcurveto
            -35 -17 1 callsubr
            -1 1 17 rlineto
            -17 -39 -4 27 2 hvcurveto
            3 vlineto
            43 374 rlineto
            50 -344 0 -1 -2 vvcurveto
            -9 -4 -14 -11 vhcurveto
            -32 -3 callgsubr
            vlineto
            53 1 53 -1 53 -1 1 17 rcurveline
            -41 -3 callgsubr
            -13 25 15 1 hvcurveto
            4 vlineto
            40 579 2 20 16 21 22 1 rlinecurve
            10 11 0 11 -6 callgsubr
            return
          </CharString>
          <CharString index="7">
            rmoveto
            15 -13 13 -16 -15 -13 -13 -15 -15 13 -13 15 16 13 13 15 vhcurveto
            -82 1 -95 callgsubr
          </CharString>
          <CharString index="8">
            -148 -17 hlineto
            27 35 6 -40 hvcurveto
            -370 vlineto
            -51 -5 -170 -73 -84 6 199 54 vhcurveto
            383 vlineto
            20 6 9 20 vhcurveto
            9 -15 callsubr
            hhcurveto
            17 -159 3 callsubr
            32 5 -35 vvcurveto
            -367 vlineto
            return
          </CharString>
          <CharString index="9">
            -40 callgsubr
            -2 -281 rlineto
            -33 -1 -25 2 -25 2 callsubr
            148 -1 -1 18 -22 -1 -26 1 1 30 rlinecurve
            4 274 rlineto
            -85 callsubr
            return
          </CharString>
          <CharString index="10">
            -30 callgsubr
            24 28 9 -35 hvcurveto
            -7 vlineto
            -97 -658 rlineto
            -11 -2 -13 -11 -11 hhcurveto
            -10 -10 2 1 -9 hvcurveto
            -2 -18 120 -11 2 17 rlineto
            -16 2 -28 0 23 vvcurveto
            1 return
          </CharString>
          <CharString index="11">
            31 245 334 rmoveto
            98 -1 132 -101 -69 callgsubr
            vhcurveto
            -103 213 -81 callsubr
            return
          </CharString>
          <CharString index="12">
            rmoveto
            -34 3 -23 -33 -33 hhcurveto
            -31 -27 30 32 -1 hvcurveto
            -18 hlineto
            -3 0 -4 -3 vvcurveto
            -54 22 -40 54 55 20 42 54 vhcurveto
            4 0 5 4 vvcurveto
            endchar
          </CharString>
          <CharString index="13">
            rlineto
            172 -17 -102 vlineto
            -32 -24 -21 -31 vhcurveto
            -51 -1 rlineto
            341 vlineto
            10 11 1 5 hhcurveto
            24 12 -8 -26 hvcurveto
            -52 18 179 -18 -43 vlineto
            -17 -7 -16 -20 vhcurveto
            -35 return
          </CharString>
          <CharString index="14">
            -87 rmoveto
            -37 -8 -10 -65 -49 hhcurveto
            -37 -15 38 32 28 11 32 26 14 hvcurveto
            -12 6 rlineto
            -41 -16 -16 -42 -33 vvcurveto
            -42 30 -39 45 66 27 71 53 10 vhcurveto
            120 611 rlineto
            15 3 16 19 17 hhcurveto
            20 13 -134 -13 25 hlineto
            15 11 -19 -13 -1 2 17 -46 -237 hvcurveto
            -27 80 -57 174 4 vvcurveto
            10 12 13 11 vhcurveto
            12 13 -134 -13 hlineto
            22 21 -8 -22 7 hvcurveto
            116 -347 rlineto
            return
          </CharString>
          <CharString index="15">
            59 107 415 -98 callsubr
            return
          </CharString>
          <CharString index="16">
            24 rmoveto
            -90 callsubr
            159 hlineto
            return
          </CharString>
          <CharString index="17">
            -17 hlineto
            -20 -17 18 19 hvcurveto
            574 vlineto
            6 callsubr
            17 17 -159 -17 19 hlineto
            19 18 -19 -19 hvcurveto
            -574 vlineto
            -19 -18 -18 -20 vhcurveto
            -18 -17 return
          </CharString>
          <CharString index="18">
            172 -91 callsubr
            return
          </CharString>
          <CharString index="19">
            50 198 105 rmoveto
            -30 -2 -84 -42 -73 0 181 197 130 0 205 72 69 6 -131 -49 vhcurveto
            17 1 -3 219 -16 -1 1 -88 rlineto
            36 -11 -29 36 -40 hhcurveto
            -111 0 -185 -173 -216 2 -183 112 45 20 49 37 7 hvcurveto
            1 -89 -28 callsubr
            -3 357 47 3 -1 17 -124 -7 -30 callgsubr
            39 2 rlineto
            return
          </CharString>
          <CharString index="20">
            rmoveto
            -40 hlineto
            -68 -132 13 -7 71 97 78 -100 11 7 rlineto
            endchar
          </CharString>
          <CharString index="21">
            4 210 597 rmoveto
            -80 callgsubr
            -54 43 -35 52 71 41 53 78 58 -18 43 -51 44 hvcurveto
            -50 callsubr
            return
          </CharString>
          <CharString index="22">
            44 1 -24 37 -48 hhcurveto
            -26 -29 -12 -40 -21 hvcurveto
            1 53 rlineto
            0 -101 2 1 vvcurveto
            -33 callgsubr
            -348 -46 callgsubr
            -22 -26 -9 callsubr
            return
          </CharString>
          <CharString index="23">
            rmoveto
            -83 callsubr
            return
          </CharString>
          <CharString index="24">
            8 -10 128 106 -43 35 rlineto
            return
          </CharString>
          <CharString index="25">
            230 177 rmoveto
            -17 -118 hlineto
            -49 callsubr
            597 -52 callsubr
            -593 -38 callgsubr
            return
          </CharString>
          <CharString index="26">
            rmoveto
            52 0 -108 -124 -84 0 -129 -58 -56 0 123 77 105 0 140 62 hvcurveto
            return
          </CharString>
          <CharString index="27">
            12 227 577 rmoveto
            -17 -100 hlineto
            -35 callsubr
            -65 0 -177 104 75 19 84 62 hvcurveto
            -65 callsubr
            vlineto
            return
          </CharString>
          <CharString index="28">
            rmoveto
            -11 7 -78 -100 -71 97 -13 -7 68 -132 rlineto
            40 hlineto
            endchar
          </CharString>
          <CharString index="29">
            22 21 1 22 hhcurveto
            29 9 -22 -25 hvcurveto
            1 -73 -36 callgsubr
            139 return
          </CharString>
          <CharString index="30">
            4 367 -107 2 rlineto
            -17 21 vlineto
            27 -1 7 -28 -23 vvcurveto
            -1 -300 rlineto
            -46 -18 return
          </CharString>
          <CharString index="31">
            140 -79 callgsubr
            return
          </CharString>
          <CharString index="32">
            rmoveto
            68 0 125 -67 -83 2 -191 -50 -44 6 -132 64 82 -4 172 52 vhcurveto
            -68 177 rmoveto
            33 0 -146 -25 -29 0 -185 -43 -32 -1 132 26 30 2 197 41 hvcurveto
            return
          </CharString>
          <CharString index="33">
            10 251 514 rmoveto
            -227 -2 -1 -187 rlineto
            15 139 hlineto
            15 13 17 16 vhcurveto
            97 1 -148 -501 211 9 -3 203 -11 callgsubr
            2 -148 rlineto
            -23 -14 -15 -22 -1 vhcurveto
            -98 -4 135 461 rlineto
            23 7 12 -4 22 hhcurveto
            return
          </CharString>
          <CharString index="34">
            -45 callgsubr
            -85 14 -64 89 -50 hvcurveto
            -63 callsubr
            return
          </CharString>
          <CharString index="35">
            16 17 1 16 hhcurveto
            32 29 -16 -37 4 hvcurveto
            1 -87 -36 callgsubr
            157 return
          </CharString>
          <CharString index="36">
            147 59 rmoveto
            -14 hlineto
            -17 callsubr
            7 601 rlineto
            -101 -18 hlineto
            17 1 rlineto
            -59 callgsubr
            return
          </CharString>
          <CharString index="37">
            65 -9 73 -64 41 vhcurveto
            -74 47 -15 34 94 vvcurveto
            39 2 128 61 41 31 -67 -38 vhcurveto
            -36 -1 -25 -36 vvcurveto
            17 hlineto
            3 292 rlineto
            return
          </CharString>
          <CharString index="38">
            41 103 580 -29 callgsubr
            -6 -464 -82 callgsubr
            return
          </CharString>
          <CharString index="39">
            rmoveto
            -159 -16 17 hlineto
            20 18 -18 -20 hvcurveto
            -8 -579 rlineto
            -38 -30 -42 -41 -49 -24 54 42 vhcurveto
            95 -18 callsubr
            -71 17 71 -19 callsubr
            -96 vlineto
            -63 48 -58 65 58 39 47 56 vhcurveto
            8 582 rlineto
            6 callsubr
            18 hlineto
            return
          </CharString>
          <CharString index="40">
            -40 -2 -23 -55 -47 hhcurveto
            -55 -26 61 47 32 23 43 30 10 hvcurveto
            -2 12 rlineto
            -51 -6 -29 -58 -46 vvcurveto
            -65 45 -52 66 71 44 58 68 3 vhcurveto
            return
          </CharString>
          <CharString index="41">
            rlineto
            2 4 4 1 4 hhcurveto
            13 11 -8 -14 -11 -8 -15 -12 -10 -8 2 8 -7 hvcurveto
            -7 -12 rlineto
            -11 8 20 -5 13 hhcurveto
            endchar
          </CharString>
          <CharString index="42">
            -17 hlineto
            -41 2 -12 -86 -59 hhcurveto
            -67 7 172 44 185 0 61 61 53 16 -75 -41 hvcurveto
            -61 17 return
          </CharString>
          <CharString index="43">
            67 98 345 rmoveto
            44 9 24 57 44 hhcurveto
            40 1 -52 -28 1 hvcurveto
            -77 -1 -158 0 vhcurveto
            -17 -15 -20 -18 -1 vhcurveto
            -17 -17 hlineto
            144 1 rlineto
            17 -13 vlineto
            -20 1 -13 26 17 75 2 76 75 vvcurveto
            49 -25 59 -57 -34 -27 -17 -47 -24 vhcurveto
            return
          </CharString>
          <CharString index="44">
            50 -28 9 -55 -57 vvcurveto
            -35 1 -148 -65 -55 -23 61 48 20 1 52 29 23 0 -35 -16 vhcurveto
            return
          </CharString>
          <CharString index="45">
            -19 17 -17 19 19 17 17 19 20 -16 17 -20 -1 vhcurveto
            -2 hlineto
            6 29 13 21 19 22 rrcurveto
            -38 -13 -34 -55 -40 vvcurveto
            return
          </CharString>
          <CharString index="46">
            -57 callsubr
            -613 -32 callgsubr
            614 vlineto
            return
          </CharString>
          <CharString index="47">
            -64 callsubr
            5 253 -25 callsubr
            -8 -577 -30 callsubr
            return
          </CharString>
          <CharString index="48">
            -37 callsubr
            -71 4 -149 103 return
          </CharString>
          <CharString index="49">
            207 430 rmoveto
            -50 callgsubr
            -11 540 rcurveline
            -54 callgsubr
            return
          </CharString>
          <CharString index="50">
            35 214 669 rmoveto
            24 8 -20 -21 hvcurveto
            -67 17 173 -17 -42 -215 37 -17 -174 17 74 vlineto
            22 11 18 24 vhcurveto
            53 return
          </CharString>
          <CharString index="51">
            78 -41 48 -67 -68 -46 -50 -82 vhcurveto
            -464 vlineto
            return
          </CharString>
          <CharString index="52">
            1 1 137 rcurveline
            -77 callgsubr
            194 49 2 -78 callgsubr
            return
          </CharString>
          <CharString index="53">
            rmoveto
            -24 2 -1 -60 -37 -36 -21 69 -49 hhcurveto
            -46 -35 -28 -59 -10 1 -10 1 -10 hvcurveto
            18 -1 rlineto
            29 -2 7 43 39 42 12 -70 50 hhcurveto
            52 21 44 55 11 -1 11 -1 11 hvcurveto
            return
          </CharString>
          <CharString index="54">
            rmoveto
            40 -6 63 -55 -20 -19 -11 -17 -11 vhcurveto
            17 -16 vlineto
            -2 -101 rlineto
            17 32 hlineto
            20 1 13 37 23 hhcurveto
            33 7 -52 -29 -45 -6 -42 -37 -31 hvcurveto
            -55 -51 -1 -71 -70 vvcurveto
            123 hlineto
            5 89 -11 callgsubr
            -15 -1 -11 -1 -12 vhcurveto
            -5 -1 -5 -6 vvcurveto
            -13 -1 -10 -5 -12 hhcurveto
            -50 hlineto
            1 52 2 62 37 39 rrcurveto
            48 50 11 21 70 vvcurveto
            endchar
          </CharString>
          <CharString index="55">
            vlineto
            20 17 21 21 vhcurveto
            17 17 -159 -17 18 hlineto
            20 17 -18 -20 hvcurveto
            return
          </CharString>
          <CharString index="56">
            -17 -1 rlineto
            -14 1 -2 -26 -19 hhcurveto
            return
          </CharString>
          <CharString index="57">
            -32 27 -48 44 79 vvcurveto
            45 5 68 51 44 17 -53 -37 1 vhcurveto
            3 -102 rlineto
            19 hlineto
            return
          </CharString>
          <CharString index="58">
            -25 -8 -12 -26 -2 vhcurveto
            -1 -13 -12 -1 -13 hhcurveto
            -19 -6 14 17 hvcurveto
            return
          </CharString>
          <CharString index="59">
            rlineto
            -16 -14 -22 -18 8 callgsubr
            1 -17 145 5 rlineto
            return
          </CharString>
          <CharString index="60">
            rmoveto
            -8 -6 9 8 1 hvcurveto
            7 385 rlineto
            -33 hlineto
            -51 -48 11 -12 38 36 -6 -359 rlineto
            -9 -1 -7 -8 -8 hhcurveto
            -19 -16 hlineto
            101 -3 rlineto
            16 vlineto
            return
          </CharString>
          <CharString index="61">
            rlineto
            -51 18 -73 64 33 35 16 63 vhcurveto
            -18 4 rlineto
            -24 1 -7 -35 -31 hhcurveto
            -46 0 64 33 hvcurveto
            return
          </CharString>
          <CharString index="62">
            70 279 -35 callgsubr
            -4 -606 -37 callgsubr
            -50 8 rmoveto
            -208 -9 -152 -110 vhcurveto
            4 679 rlineto
            106 9 -96 -223 hvcurveto
            return
          </CharString>
          <CharString index="63">
            rmoveto
            -44 callgsubr
            return
          </CharString>
          <CharString index="64">
            124 116 272 rmoveto
            135 hlineto
            -4 -219 rlineto
            -34 -4 -23 -4 -30 hhcurveto
            1 -17 rlineto
            160 17 -18 hlineto
            -20 -17 19 19 hvcurveto
            return
          </CharString>
          <CharString index="65">
            -84 callsubr
            4 -131 -84 callgsubr
          </CharString>
          <CharString index="66">
            581 rmoveto
            -62 callsubr
            return
          </CharString>
          <CharString index="67">
            364 vlineto
            27 17 13 25 vhcurveto
            return
          </CharString>
          <CharString index="68">
            -22 callgsubr
            -63 25 -66 75 90 12 101 77 return
          </CharString>
          <CharString index="69">
            208 rmoveto
            5 216 rlineto
            -36 hlineto
            -3 -216 rlineto
            -73 hlineto
            31 180 -17 1 -35 -197 rlineto
            94 hlineto
            -2 -151 rlineto
            -8 -1 -7 -9 -8 hhcurveto
            -18 -16 hlineto
            100 1 -20 callgsubr
            -14 -19 0 13 hvcurveto
            3 153 rlineto
            23 16 hlineto
            return
          </CharString>
          <CharString index="70">
            -117 2 -171 -87 return
          </CharString>
          <CharString index="71">
            -34 callgsubr
            -228 -332 -47 callsubr
            return
          </CharString>
          <CharString index="72">
            33 -14 -28 23 -37 hhcurveto
            -103 0 -128 -135 return
          </CharString>
          <CharString index="73">
            115 602 -33 callsubr
            -5 -462 -79 callgsubr
            return
          </CharString>
          <CharString index="74">
            rmoveto
            17 -14 14 -17 -17 -15 -14 -17 -17 15 -15 17 17 14 15 17 vhcurveto
            return
          </CharString>
          <CharString index="75">
            -81 callsubr
            endchar
          </CharString>
          <CharString index="76">
            -18 callgsubr
            146 2 7 callgsubr
            -13 26 16 hvcurveto
            -5 return
          </CharString>
          <CharString index="77">
            rlineto
            -35 -23 3 -27 1 -4 callsubr
            145 1 -20 callgsubr
            -25 -1 -22 1 1 32 rrcurveto
            return
          </CharString>
          <CharString index="78">
            rlineto
            19 19 22 20 vhcurveto
            19 hlineto
            -1 15 -160 -7 1 -15 rlineto
            25 28 -2 -32 hvcurveto
            return
          </CharString>
          <CharString index="79">
            rlineto
            17 hlineto
            return
          </CharString>
          <CharString index="80">
            rlineto
            33 27 1 26 vhcurveto
            15 vlineto
            -157 1 1 -15 rlineto
            49 5 -12 -47 hvcurveto
            return
          </CharString>
          <CharString index="81">
            rlineto
            -19 -19 -18 -19 vhcurveto
            -18 -18 160 18 hlineto
            -29 -25 1 36 -1 hvcurveto
            return
          </CharString>
          <CharString index="82">
            rlineto
            15 12 15 15 vhcurveto
            21 17 -146 -17 18 hlineto
            17 12 -22 -15 hvcurveto
            return
          </CharString>
          <CharString index="83">
            vhcurveto
            3 callsubr
            33 6 -36 vvcurveto
            -9 return
          </CharString>
          <CharString index="84">
            -24 callgsubr
            -11 hlineto
            return
          </CharString>
          <CharString index="85">
            -62 callsubr
            endchar
          </CharString>
          <CharString index="86">
            rlineto
            24 1 17 34 28 hhcurveto
            59 17 -105 hlineto
            return
          </CharString>
          <CharString index="87">
            -19 -20 16 return
          </CharString>
          <CharString index="88">
            vlineto
            25 -14 26 -28 -29 -16 -25 -26 vhcurveto
            return
          </CharString>
          <CharString index="89">
            vlineto
            16 9 18 19 18 7 -19 -15 vhcurveto
            return
          </CharString>
          <CharString index="90">
            -19 -1 -15 26 16 vvcurveto
            return
          </CharString>
          <CharString index="91">
            5 -10 -10 3 -13 hhcurveto
            -69 callgsubr
            return
          </CharString>
          <CharString index="92">
            9 -1 9 return
          </CharString>
          <CharString index="93">
            rmoveto
            -12 callgsubr
            -13 callsubr
            vhcurveto
            endchar
          </CharString>
          <CharString index="94">
            -16 14 -14 16 16 14 14 16 return
          </CharString>
          <CharString index="95">
            -2 -30 callgsubr
            return
          </CharString>
          <CharString index="96">
            68 347 rmoveto
            79 77 -7 14 -124 -78 1 -29 132 -90 8 14 rlineto
            return
          </CharString>
          <CharString index="97">
            rmoveto
            31 0 -68 -77 -53 0 -80 -35 -33 0 76 49 66 0 87 37 hvcurveto
            return
          </CharString>
          <CharString index="98">
            1 30 1 hvcurveto
            return
          </CharString>
          <CharString index="99">
            -44 callsubr
            13 7 17 10 13 hvcurveto
            return
          </CharString>
          <CharString index="100">
            hhcurveto
            -68 -46 -50 -82 hvcurveto
            -464 vlineto
            return
          </CharString>
          <CharString index="101">
            200 rmoveto
            106 102 35 -102 103 -35 -103 -107 -35 107 -106 vlineto
            return
          </CharString>
          <CharString index="102">
            45 266 341 -14 callgsubr
            endchar
          </CharString>
          <CharString index="103">
            vhcurveto
            -17 vlineto
            return
          </CharString>
          <CharString index="104">
            27 689 rmoveto
            10 -166 12 2 12 157 rlineto
            return
          </CharString>
          <CharString index="105">
            -16 hhcurveto
            -9 -8 0 1 -9 hvcurveto
            -18 vlineto
            159 return
          </CharString>
          <CharString index="106">
            rmoveto
            -1 vlineto
            41 0 -62 -77 -116 0 -100 -54 return
          </CharString>
          <CharString index="107">
            -36 -1 hvcurveto
            -6 return
          </CharString>
          <CharString index="108">
            hlineto
            159 return
          </CharString>
          <CharString index="109">
            hhcurveto
            -17 vlineto
            return
          </CharString>
          <CharString index="110">
            -17 vlineto
            25 1 return
          </CharString>
          <CharString index="111">
            3 75 1 return
          </CharString>
          <CharString index="112">
            rlineto
            69 17 -68 hlineto
            3 166 rlineto
            return
          </CharString>
          <CharString index="113">
            20 17 18 20 vhcurveto
            return
          </CharString>
          <CharString index="114">
            -1 -30 callgsubr
            return
          </CharString>
        <CharString name=".notdef">
          -43 endchar
        </CharString>
        <CharString name="A">
          -107 callgsubr
          endchar
        </CharString>
        <CharString name="AE">
          -70 callgsubr
          endchar
        </CharString>
        <CharString name="AEacute">
          -70 callgsubr
          91 486 -84 callgsubr
        </CharString>
        <CharString name="Aacute">
          -107 callgsubr
          59 476 -84 callgsubr
        </CharString>
        <CharString name="Abreve">
          -107 callgsubr
          123 586 -95 callsubr
        </CharString>
        <CharString name="Acircumflex">
          -107 callgsubr
          88 615 -87 callsubr
        </CharString>
        <CharString name="Adieresis">
          -107 callgsubr
          137 499 -100 callsubr
        </CharString>
        <CharString name="Agrave">
          -107 callgsubr
          -36 612 -63 callgsubr
        </CharString>
        <CharString name="Amacron">
          -107 callgsubr
          159 509 -41 callgsubr
        </CharString>
        <CharString name="Aogonek">
          96 318 -63 -8 callsubr
          75 11 -2 17 rlineto
          -107 callsubr
          53 7 rlineto
          -12 -12 -7 -16 -17 -47 callgsubr
          -169 732 -56 callgsubr
          endchar
        </CharString>
        <CharString name="Aring">
          -107 callgsubr
          114 516 -75 callgsubr
        </CharString>
        <CharString name="Atilde">
          -107 callgsubr
          148 577 -97 callgsubr
        </CharString>
        <CharString name="B">
          82 297 231 rmoveto
          68 -23 82 -77 23 vhcurveto
          64 11 35 80 58 vvcurveto
          99 -70 46 -102 vhcurveto
          -106 -17 hlineto
          31 22 2 -38 -1 hvcurveto
          -6 -590 rlineto
          -20 -1 -19 -18 -20 hhcurveto
          -18 -17 97 hlineto
          136 58 96 135 hvcurveto
          -51 -4 rmoveto
          -90 -27 -109 -107 -3 vhcurveto
          5 373 rlineto
          40 hlineto
          76 13 -110 -61 hvcurveto
          -121 456 rmoveto
          75 46 -40 -83 -54 -21 -91 -69 hvcurveto
          -39 hlineto
          3 268 rlineto
          endchar
        </CharString>
        <CharString name="C">
          -85 callgsubr
          endchar
        </CharString>
        <CharString name="Cacute">
          -85 callgsubr
          -113 616 -84 callgsubr
        </CharString>
        <CharString name="Ccaron">
          -85 callgsubr
          -25 743 -79 callsubr
        </CharString>
        <CharString name="Ccedilla">
          40 147 -124 -23 callsubr
          11 30 rlineto
          4 hlineto
          80 21 76 67 hvcurveto
          -83 callgsubr
          -132 -1 -210 110 -22 hvcurveto
          -22 -52 -66 callsubr
        </CharString>
        <CharString name="Ccircumflex">
          -85 callgsubr
          -102 750 -87 callsubr
        </CharString>
        <CharString name="Cdotaccent">
          -85 callgsubr
          -89 642 -95 callgsubr
        </CharString>
        <CharString name="D">
          -45 callsubr
          endchar
        </CharString>
        <CharString name="Dcaron">
          -45 callsubr
          14 497 -79 callsubr
        </CharString>
        <CharString name="Dcroat">
          -52 callgsubr
        </CharString>
        <CharString name="E">
          -104 callsubr
          endchar
        </CharString>
        <CharString name="Eacute">
          -104 callsubr
          9 344 -84 callgsubr
        </CharString>
        <CharString name="Ebreve">
          -104 callsubr
          74 460 -95 callsubr
        </CharString>
        <CharString name="Ecaron">
          -104 callsubr
          113 472 -79 callsubr
        </CharString>
        <CharString name="Ecircumflex">
          -104 callsubr
          35 477 -87 callsubr
        </CharString>
        <CharString name="Edieresis">
          -104 callsubr
          84 364 -100 callsubr
        </CharString>
        <CharString name="Edotaccent">
          -104 callsubr
          49 374 -95 callgsubr
        </CharString>
        <CharString name="Egrave">
          -104 callsubr
          -76 477 -63 callgsubr
        </CharString>
        <CharString name="Emacron">
          -104 callsubr
          110 375 -41 callgsubr
        </CharString>
        <CharString name="Eng">
          -91 callgsubr
          161 -538 -1 -123 rlineto
          -104 -2 -49 -22 -41 hhcurveto
          -49 -24 40 42 hvcurveto
          25 -18 callsubr
          -21 17 21 -19 callsubr
          -26 vlineto
          -63 41 -38 54 58 47 47 96 vhcurveto
          endchar
        </CharString>
        <CharString name="Eogonek">
          31 239 -70 -44 callsubr
          14 9 20 11 13 hvcurveto
          41 1 -94 callsubr
          296 hlineto
          -89 callgsubr
          160 3 rlineto
          -16 -14 -11 -19 -20 -23 callgsubr
        </CharString>
        <CharString name="Eth">
          -52 callgsubr
        </CharString>
        <CharString name="Euro">
          55 188 398 rmoveto
          -60 hlineto
          79 1 6 140 45 hhcurveto
          54 7 -101 -41 2 hvcurveto
          17 1 -6 172 -11 callgsubr
          -19 2 -18 -20 vvcurveto
          25 -13 -20 24 -31 hhcurveto
          -81 -9 -136 -106 -1 hvcurveto
          -46 hlineto
          -10 -32 rlineto
          56 -24 -64 hlineto
          -8 -31 rlineto
          72 hlineto
          -109 1 10 -140 93 hhcurveto
          65 17 61 55 hvcurveto
          6 vlineto
          2 -1 3 3 vvcurveto
          -16 hlineto
          -34 1 -5 -70 -46 hhcurveto
          -63 -11 122 101 -1 hvcurveto
          33 hlineto
          9 31 rlineto
          -42 24 50 hlineto
          endchar
        </CharString>
        <CharString name="F">
          41 125 676 rmoveto
          2 27 28 4 27 hhcurveto
          32 11 -25 -27 hvcurveto
          1 -107 -36 callgsubr
          181 -256 -18 rlineto
          -18 vlineto
          1 7 6 1 7 hhcurveto
          18 26 -16 -20 hvcurveto
          -4 -573 rlineto
          -19 -15 -18 -20 vhcurveto
          -20 -18 160 18 hlineto
          -35 -21 -10 45 hvcurveto
          2 280 rlineto
          36 hlineto
          19 13 -15 -18 hvcurveto
          -83 18 209 -18 vlineto
          -26 1 8 -50 -41 hhcurveto
          -36 hlineto
          endchar
        </CharString>
        <CharString name="G">
          -88 callsubr
          endchar
        </CharString>
        <CharString name="Gbreve">
          -88 callsubr
          3 535 -95 callsubr
        </CharString>
        <CharString name="Gcircumflex">
          -88 callsubr
          -30 585 -87 callsubr
        </CharString>
        <CharString name="Gcommaaccent">
          -88 callsubr
          -16 -403 -100 callgsubr
        </CharString>
        <CharString name="Gdotaccent">
          -88 callsubr
          -22 462 -95 callgsubr
        </CharString>
        <CharString name="H">
          -60 callgsubr
          endchar
        </CharString>
        <CharString name="Hbar">
          -43 callsubr
          6 360 rlineto
          57 35 -56 hlineto
          4 226 -27 callsubr
          -4 -202 rlineto
          -139 hlineto
          -1 191 -29 callsubr
          1 -191 rlineto
          -56 -35 56 hlineto
          3 -369 -26 callsubr
          -3 369 rmoveto
          138 hlineto
          -2 -118 rlineto
          -135 hlineto
          endchar
        </CharString>
        <CharString name="Hcircumflex">
          -60 callgsubr
          87 848 -87 callsubr
        </CharString>
        <CharString name="I">
          -86 callgsubr
          endchar
        </CharString>
        <CharString name="IJ">
          228 -89 callsubr
          299 713 -68 callsubr
          endchar
        </CharString>
        <CharString name="Iacute">
          -86 callgsubr
          -79 715 -84 callgsubr
        </CharString>
        <CharString name="Ibreve">
          -86 callgsubr
          -25 835 -95 callsubr
        </CharString>
        <CharString name="Icircumflex">
          -52 175 -91 callsubr
          -58 846 -87 callsubr
        </CharString>
        <CharString name="Idieresis">
          -86 callgsubr
          -9 739 -100 callsubr
        </CharString>
        <CharString name="Idotaccent">
          -86 callgsubr
          -50 738 -95 callgsubr
        </CharString>
        <CharString name="Igrave">
          -86 callgsubr
          -170 848 -63 callgsubr
        </CharString>
        <CharString name="Imacron">
          -86 callgsubr
          11 748 -41 callgsubr
        </CharString>
        <CharString name="Iogonek">
          -57 141 -66 -8 callsubr
          74 17 -90 callsubr
          58 hlineto
          -14 -14 -9 -17 -19 -23 callgsubr
        </CharString>
        <CharString name="Itilde">
          -86 callgsubr
          3 815 -97 callgsubr
        </CharString>
        <CharString name="J">
          42 285 720 -68 callsubr
          endchar
        </CharString>
        <CharString name="Jcircumflex">
          42 285 720 -68 callsubr
          -57 182 -87 callsubr
        </CharString>
        <CharString name="K">
          -65 callgsubr
          endchar
        </CharString>
        <CharString name="Kcommaaccent">
          -65 callgsubr
          65 -446 -100 callgsubr
        </CharString>
        <CharString name="L">
          -1 -82 callsubr
          endchar
        </CharString>
        <CharString name="Lacute">
          -1 -82 callsubr
          -138 743 -84 callgsubr
        </CharString>
        <CharString name="Lcaron">
          -1 -82 callsubr
          16 760 -100 callgsubr
        </CharString>
        <CharString name="Lcommaaccent">
          -1 -82 callsubr
          -73 -84 -100 callgsubr
        </CharString>
        <CharString name="Ldot">
          83 -82 callsubr
          73 360 rmoveto
          -49 callgsubr
          endchar
        </CharString>
        <CharString name="Lslash">
          8 195 394 rmoveto
          -72 -34 rlineto
          286 -52 callsubr
          -313 vlineto
          -53 -25 rlineto
          -25 vlineto
          53 25 rlineto
          -255 -38 callgsubr
          174 -17 -118 vlineto
          -49 callsubr
          286 vlineto
          72 34 rlineto
          endchar
        </CharString>
        <CharString name="M">
          106 238 605 rmoveto
          -81 -291 -38 107 -21 64 -11 36 rlinecurve
          -1 49 rlineto
          34 26 -3 25 1 vhcurveto
          -1 15 -130 -7 1 -15 rlineto
          11 10 1 11 hhcurveto
          17 10 -14 -15 hvcurveto
          10 -502 rlineto
          -14 1 -11 -20 -16 hhcurveto
          -28 -1 1 -17 130 4 -1 17 -28 -1 rlineto
          -15 -12 19 14 hvcurveto
          -7 324 58 -167 90 317 -1 -507 rlineto
          -14 -11 -20 -16 -1 vhcurveto
          -28 -1 1 -17 159 5 -1 17 -28 -1 rlineto
          -15 -12 18 14 hvcurveto
          661 vlineto
          11 9 18 13 vhcurveto
          31 16 hlineto
          -160 -2 rlineto
          -15 vlineto
          67 2 -8 -10 -62 vvcurveto
          endchar
        </CharString>
        <CharString name="N">
          -87 callgsubr
          endchar
        </CharString>
        <CharString name="Nacute">
          -87 callgsubr
          -141 712 -84 callgsubr
        </CharString>
        <CharString name="Ncaron">
          -87 callgsubr
          -41 821 -79 callsubr
        </CharString>
        <CharString name="Ncommaaccent">
          -87 callgsubr
          -62 -92 -100 callgsubr
        </CharString>
        <CharString name="Ntilde">
          -87 callgsubr
          -25 831 -97 callgsubr
        </CharString>
        <CharString name="O">
          -98 callgsubr
          endchar
        </CharString>
        <CharString name="OE">
          184 270 679 rmoveto
          -72 callsubr
          -180 -2 rlineto
          11 -16 -21 7 -24 -7 callsubr
          -69 40 -58 66 29 22 8 13 18 vhcurveto
          -8 vlineto
          172 5 -94 callsubr
          hlineto
          -51 -259 -74 callgsubr
          endchar
        </CharString>
        <CharString name="Oacute">
          -98 callgsubr
          -59 621 -84 callgsubr
        </CharString>
        <CharString name="Obreve">
          -98 callgsubr
          -8 723 -95 callsubr
        </CharString>
        <CharString name="Ocircumflex">
          -98 callgsubr
          -41 742 -87 callsubr
        </CharString>
        <CharString name="Odieresis">
          -98 callgsubr
          8 632 -100 callsubr
        </CharString>
        <CharString name="Ograve">
          -98 callgsubr
          -154 752 -63 callgsubr
        </CharString>
        <CharString name="Ohungarumlaut">
          -98 callgsubr
          -107 629 -42 callsubr
        </CharString>
        <CharString name="Omacron">
          -98 callgsubr
          28 646 -41 callgsubr
        </CharString>
        <CharString name="Oslash">
          -57 callgsubr
          endchar
        </CharString>
        <CharString name="Oslashacute">
          -57 callgsubr
          -62 318 -84 callgsubr
        </CharString>
        <CharString name="Otilde">
          -98 callgsubr
          19 717 -97 callgsubr
        </CharString>
        <CharString name="P">
          34 142 35 rmoveto
          -15 -13 17 14 1 hvcurveto
          3 247 rlineto
          108 12 41 78 102 vvcurveto
          103 -38 81 -115 -33 -33 -2 -1 -32 -24 callsubr
          -575 rlineto
          -15 -10 -18 -16 -2 vhcurveto
          -9 -2 -10 1 -9 -1 rrcurveto
          -31 callgsubr
          77 479 rmoveto
          -70 -17 -100 -83 -15 vhcurveto
          5 337 rlineto
          84 11 -87 -65 hvcurveto
          endchar
        </CharString>
        <CharString name="Q">
          71 245 -119 rmoveto
          -16 -13 -20 -19 -23 hhcurveto
          -41 -6 59 31 18 1 18 2 18 hvcurveto
          7 hlineto
          84 32 66 91 hvcurveto
          440 vlineto
          -56 callsubr
          -53 23 -46 40 -18 vhcurveto
          -7 -25 -4 -24 -26 vvcurveto
          -48 26 -49 53 26 38 25 21 13 vhcurveto
          -35 250 -27 callgsubr
          -3 -3 0 1 -2 vhcurveto
          4 33 5 32 34 vvcurveto
          54 -13 65 -49 29 vhcurveto
          323 vlineto
          -53 callgsubr
          -124 -466 rmoveto
          116 vlineto
          32 -22 10 -42 -37 vvcurveto
          -36 -10 -35 -9 -34 vhcurveto
          -17 22 -6 36 32 vvcurveto
          endchar
        </CharString>
        <CharString name="R">
          -94 callgsubr
          endchar
        </CharString>
        <CharString name="Racute">
          -94 callgsubr
          40 388 -84 callgsubr
        </CharString>
        <CharString name="Rcaron">
          -94 callgsubr
          129 516 -79 callsubr
        </CharString>
        <CharString name="Rcommaaccent">
          -94 callgsubr
          65 -410 -100 callgsubr
        </CharString>
        <CharString name="S">
          -88 callgsubr
          endchar
        </CharString>
        <CharString name="Sacute">
          -88 callgsubr
          -99 -24 -84 callgsubr
        </CharString>
        <CharString name="Scaron">
          -88 callgsubr
          -16 91 -79 callsubr
        </CharString>
        <CharString name="Scedilla">
          18 115 -140 -23 callsubr
          14 38 rlineto
          90 1 12 100 77 vvcurveto
          -70 callsubr
          -18 hlineto
          -73 callsubr
          -31 vlineto
          17 -1 rlineto
          20 vlineto
          -22 callgsubr
          -59 21 -60 63 -9 vhcurveto
          -25 -59 -66 callsubr
        </CharString>
        <CharString name="Scircumflex">
          -88 callgsubr
          -91 79 rmoveto
          -36 hlineto
          -61 -118 12 -6 63 87 70 -90 10 6 rlineto
          endchar
        </CharString>
        <CharString name="T">
          -61 callsubr
          endchar
        </CharString>
        <CharString name="Tbar">
          -57 callsubr
          -300 -80 -35 80 -278 -32 callgsubr
          279 70 35 -70 300 vlineto
          endchar
        </CharString>
        <CharString name="Tcaron">
          -61 callsubr
          61 188 -79 callsubr
        </CharString>
        <CharString name="Tcommaaccent">
          -61 callsubr
          6 -750 -100 callgsubr
        </CharString>
        <CharString name="Thorn">
          40 124 699 -16 callgsubr
          -586 -43 callgsubr
          2 116 rlineto
          108 11 42 78 103 vvcurveto
          100 -36 80 -108 4 vhcurveto
          96 -175 rmoveto
          -70 -17 -102 -85 -13 vhcurveto
          5 337 rlineto
          77 -6 20 -84 -62 vvcurveto
          endchar
        </CharString>
        <CharString name="U">
          -104 callgsubr
          endchar
        </CharString>
        <CharString name="Uacute">
          -104 callgsubr
          -160 56 -84 callgsubr
        </CharString>
        <CharString name="Ubreve">
          -104 callgsubr
          -127 189 -95 callsubr
        </CharString>
        <CharString name="Ucircumflex">
          -104 callgsubr
          -153 217 -87 callsubr
        </CharString>
        <CharString name="Udieresis">
          -104 callgsubr
          -104 105 -100 callsubr
        </CharString>
        <CharString name="Ugrave">
          -104 callgsubr
          -247 196 -63 callgsubr
        </CharString>
        <CharString name="Uhungarumlaut">
          -104 callgsubr
          -214 92 -42 callsubr
        </CharString>
        <CharString name="Umacron">
          -104 callgsubr
          -91 114 -41 callgsubr
        </CharString>
        <CharString name="Uogonek">
          103 219 -92 -44 callsubr
          18 13 25 15 13 hvcurveto
          94 7 7 166 70 vvcurveto
          -40 callsubr
          24 17 -99 callsubr
          -77 1 -196 101 -17 vhcurveto
          -22 -14 -17 -24 -25 -23 callgsubr
        </CharString>
        <CharString name="Uring">
          -104 callgsubr
          -133 129 -75 callgsubr
        </CharString>
        <CharString name="Utilde">
          -104 callgsubr
          -100 181 -97 callgsubr
        </CharString>
        <CharString name="V">
          109 212 688 rmoveto
          -18 vlineto
          27 37 5 -38 hvcurveto
          -2 -1 -2 -3 vvcurveto
          -88 -569 -81 592 rlineto
          1 0 2 2 vvcurveto
          26 13 5 24 vhcurveto
          13 hlineto
          -1 17 rlineto
          -156 -17 hlineto
          31 22 7 -40 6 hvcurveto
          86 -619 rlineto
          -3 0 -2 -2 vvcurveto
          -21 -10 -5 -19 vhcurveto
          -7 -7 0 -6 hhcurveto
          -1 -17 rlineto
          160 17 hlineto
          -22 -29 -5 31 hvcurveto
          2 0 2 1 vvcurveto
          92 594 rlineto
          23 4 21 18 24 hhcurveto
          30 17 hlineto
          endchar
        </CharString>
        <CharString name="W">
          -101 callsubr
          endchar
        </CharString>
        <CharString name="Wacute">
          -101 callsubr
          -223 -11 -84 callgsubr
        </CharString>
        <CharString name="Wcircumflex">
          -101 callsubr
          -182 159 -87 callsubr
        </CharString>
        <CharString name="Wdieresis">
          -101 callsubr
          -133 56 -100 callsubr
        </CharString>
        <CharString name="Wgrave">
          -101 callsubr
          -286 108 -63 callgsubr
        </CharString>
        <CharString name="X">
          108 154 319 rmoveto
          -80 -269 rlineto
          -42 -13 -29 6 -37 hhcurveto
          1 -17 149 1 rlineto
          17 -33 vlineto
          -14 -8 12 13 6 29 96 43 144 hvcurveto
          60 -245 rlineto
          1 -2 0 -3 -2 vvcurveto
          -13 -10 -5 -11 vhcurveto
          -35 hlineto
          -1 -17 160 -1 rlineto
          18 vlineto
          -38 -8 -3 38 -9 hvcurveto
          -32 129 -27 110 -23 89 87 293 rcurveline
          50 15 25 -8 48 hhcurveto
          -1 17 rlineto
          -159 -17 40 hlineto
          13 5 -12 -11 -6 -2 -5 -1 -5 hvcurveto
          -78 -263 rlineto
          -36 145 -21 81 9 vvcurveto
          13 7 17 15 vhcurveto
          31 17 hlineto
          3 callgsubr
          -17 vlineto
          29 19 6 -32 7 hvcurveto
          endchar
        </CharString>
        <CharString name="Y">
          -96 callgsubr
          endchar
        </CharString>
        <CharString name="Yacute">
          -96 callgsubr
          -95 58 -84 callgsubr
        </CharString>
        <CharString name="Ycircumflex">
          -96 callgsubr
          -77 212 -87 callsubr
        </CharString>
        <CharString name="Ydieresis">
          -96 callgsubr
          -17 107 -100 callsubr
        </CharString>
        <CharString name="Ygrave">
          -96 callgsubr
          -181 195 -63 callgsubr
        </CharString>
        <CharString name="Z">
          -76 callgsubr
          endchar
        </CharString>
        <CharString name="Zacute">
          -76 callgsubr
          -153 50 -84 callgsubr
        </CharString>
        <CharString name="Zcaron">
          -76 callgsubr
          -50 174 -79 callsubr
        </CharString>
        <CharString name="Zdotaccent">
          -76 callgsubr
          -113 75 -95 callgsubr
        </CharString>
        <CharString name="a">
          -106 callgsubr
          endchar
        </CharString>
        <CharString name="aacute">
          -106 callgsubr
          3 450 -84 callgsubr
        </CharString>
        <CharString name="abreve">
          -106 callgsubr
          74 555 -95 callsubr
        </CharString>
        <CharString name="acircumflex">
          -106 callgsubr
          35 571 -87 callsubr
        </CharString>
        <CharString name="acute">
          -107 574 vmoveto
          -83 callsubr
          endchar
        </CharString>
        <CharString name="adieresis">
          -106 callgsubr
          74 467 -100 callsubr
        </CharString>
        <CharString name="ae">
          -71 callgsubr
          endchar
        </CharString>
        <CharString name="aeacute">
          -71 callgsubr
          -12 249 -84 callgsubr
        </CharString>
        <CharString name="agrave">
          -106 callgsubr
          -79 580 -63 callgsubr
        </CharString>
        <CharString name="amacron">
          -106 callgsubr
          110 482 -41 callgsubr
        </CharString>
        <CharString name="ampersand">
          101 84 474 rmoveto
          -52 22 -73 19 -51 vhcurveto
          -48 -65 -54 -53 -73 vvcurveto
          -61 45 -49 62 35 28 19 27 22 vhcurveto
          8 -16 8 -16 8 -14 109 -5 rcurveline
          17 vlineto
          -24 1 -30 -2 -14 24 -12 20 -10 22 -10 24 15 34 9 36 5 30 rrcurveto
          16 2 2 11 19 hhcurveto
          13 12 0 -1 12 hvcurveto
          18 vlineto
          -41 -41 1 -42 hhcurveto
          -17 30 vlineto
          12 -1 6 -1 -14 vvcurveto
          -21 -8 -35 -14 -35 vhcurveto
          -27 65 -24 72 -21 66 rrcurveto
          39 56 36 53 64 vvcurveto
          49 -24 45 -54 -62 -18 -63 -52 vhcurveto
          -7 -378 rmoveto
          70 26 56 31 51 vhcurveto
          23 -66 22 -78 29 -68 rrcurveto
          -28 -20 -25 -20 -28 hhcurveto
          -41 -17 48 35 hvcurveto
          119 392 rmoveto
          -55 -16 -44 -21 -39 vhcurveto
          -12 37 -15 59 40 vvcurveto
          41 3 44 30 28 3 -38 -45 vhcurveto
          endchar
        </CharString>
        <CharString name="aogonek">
          244 -8 -44 callsubr
          14 9 20 11 14 hvcurveto
          -1 21 21 -1 22 hhcurveto
          -101 callgsubr
          -2 -49 rlineto
          -1 4 5 0 5 hhcurveto
          -18 -15 -12 -20 -21 -47 callgsubr
          -138 121 -72 callgsubr
          endchar
        </CharString>
        <CharString name="approxequal">
          61 254 371 -54 callsubr
          -16 124 -54 callsubr
          endchar
        </CharString>
        <CharString name="aring">
          -106 callgsubr
          56 485 -75 callgsubr
        </CharString>
        <CharString name="asciicircum">
          -9 149 668 rmoveto
          -56 hlineto
          -79 -252 13 -5 93 198 86 -200 12 3 rlineto
          endchar
        </CharString>
        <CharString name="asciitilde">
          49 248 421 -54 callsubr
          endchar
        </CharString>
        <CharString name="asterisk">
          -33 173 538 rmoveto
          9 8 6 10 10 -7 6 -6 4 hvcurveto
          -6 5 -13 2 -8 3 -11 3 -12 5 -11 6 11 6 12 4 11 4 8 3 13 2 6 5 rrcurveto
          6 4 7 6 9 vvcurveto
          10 -8 7 -9 -6 -5 -2 -3 -4 vhcurveto
          -8 -5 -8 -10 -5 -6 -8 -8 -9 -8 -9 -7 rrcurveto
          11 3 12 2 11 vhcurveto
          3 9 4 10 9 vvcurveto
          12 -5 13 -13 -13 -5 -13 -12 -9 4 -10 3 -9 vhcurveto
          2 -11 3 -12 -11 vvcurveto
          -9 7 -9 8 -8 8 -5 6 -8 10 -8 5 rrcurveto
          3 -4 -5 2 -6 hhcurveto
          -9 -8 -7 -10 -9 7 -6 6 -4 hvcurveto
          6 -5 13 -2 8 -3 11 -4 12 -4 11 -6 -11 -6 -12 -5 -11 -3 -8 -3 -13 -2 -6 -5 rrcurveto
          -6 -4 -7 -6 -10 vvcurveto
          -10 8 -6 9 6 5 2 3 4 vhcurveto
          8 5 8 10 5 6 8 8 9 8 9 7 rrcurveto
          -11 -3 -12 -2 -11 vhcurveto
          -3 -9 -4 -10 -10 vvcurveto
          -11 5 -13 13 13 5 13 11 10 -4 10 -3 9 vhcurveto
          -2 11 -3 12 11 vvcurveto
          9 -7 9 -8 8 -8 5 -6 8 -10 8 -5 rrcurveto
          -3 4 5 -2 6 hhcurveto
          endchar
        </CharString>
        <CharString name="at">
          198 310 175 rmoveto
          80 23 78 115 6 hvcurveto
          114 6 -43 112 -133 hhcurveto
          -147 -72 -125 -173 -150 108 -63 61 38 50 17 33 27 hvcurveto
          -9 8 rlineto
          -33 -34 -52 1 -18 hhcurveto
          -66 -62 68 117 133 43 151 126 120 21 -107 -103 -3 hvcurveto
          -79 -2 -4 -90 -46 hhcurveto
          -20 -5 28 17 hvcurveto
          3 0 3 3 vvcurveto
          6 76 9 77 6 77 -44 -2 rcurveline
          -5 -60 rlineto
          35 -13 -12 16 -27 hhcurveto
          -72 -18 -96 -63 -5 hvcurveto
          -82 -7 30 -56 54 hhcurveto
          17 27 9 40 13 hvcurveto
          -36 7 25 -13 16 hhcurveto
          -41 194 rmoveto
          -32 -13 -134 -46 -38 -6 53 68 6 vhcurveto
          33 3 13 91 39 hhcurveto
          38 4 -48 -31 hvcurveto
          endchar
        </CharString>
        <CharString name="atilde">
          -106 callgsubr
          91 545 -97 callgsubr
        </CharString>
        <CharString name="b">
          34 99 59 rmoveto
          -16 18 23 -5 18 hhcurveto
          89 0 135 126 100 0 107 -89 -20 -24 -8 -18 -17 hvcurveto
          -1 200 rlineto
          -101 -17 18 hlineto
          28 5 -28 -22 hvcurveto
          4 -521 rlineto
          -21 -9 -22 -24 1 vhcurveto
          -18 -18 101 hlineto
          46 27 rmoveto
          -14 -19 9 13 -14 hvcurveto
          -2 371 rlineto
          19 13 18 13 19 hhcurveto
          50 0 -74 -129 -133 0 -89 -51 hvcurveto
          endchar
        </CharString>
        <CharString name="backslash">
          42 11 674 rmoveto
          246 -661 17 5 -211 657 rlineto
          endchar
        </CharString>
        <CharString name="bar">
          -102 50 752 rmoveto
          4 -790 27 -2 16 792 rlineto
          endchar
        </CharString>
        <CharString name="braceleft">
          -72 157 751 rmoveto
          2 -8 -9 2 -8 hhcurveto
          -59 -40 -51 -56 hvcurveto
          -69 62 -56 -66 vvcurveto
          -51 -32 -27 -49 -3 vhcurveto
          -12 vlineto
          56 -2 33 -33 -56 -82 -71 -59 -81 vvcurveto
          -57 39 -54 60 7 6 1 1 6 vhcurveto
          -1 11 rlineto
          -50 -6 -21 44 43 77 54 66 80 vvcurveto
          59 -28 40 -58 16 vhcurveto
          54 6 30 49 51 71 -52 60 62 vvcurveto
          38 19 30 41 6 6 0 -1 6 vhcurveto
          1 13 rlineto
          endchar
        </CharString>
        <CharString name="braceright">
          -73 156 376 rmoveto
          -48 3 -32 27 51 66 62 56 69 vvcurveto
          56 -40 51 -59 -9 -9 -2 -2 -8 vhcurveto
          2 -13 rlineto
          1 6 6 0 6 hhcurveto
          41 19 -30 -38 hvcurveto
          -62 -53 -60 -71 vvcurveto
          -51 30 -49 54 -6 vhcurveto
          -57 -16 -29 -40 -59 -80 54 -66 -77 vvcurveto
          -43 -21 -44 -49 6 vhcurveto
          -2 -11 rlineto
          -1 6 7 -1 6 hhcurveto
          60 39 54 57 hvcurveto
          81 -70 59 82 vvcurveto
          56 32 33 56 2 vhcurveto
          endchar
        </CharString>
        <CharString name="bracketleft">
          -50 187 761 rmoveto
          -132 -3 -7 -822 136 -4 1 18 -87 1 5 792 85 1 rlineto
          endchar
        </CharString>
        <CharString name="bracketright">
          -50 8 761 rmoveto
          -17 vlineto
          87 -2 -6 -791 -84 -1 rlineto
          -18 vlineto
          133 3 7 823 rlineto
          endchar
        </CharString>
        <CharString name="breve">
          -92 130 683 -95 callsubr
        </CharString>
        <CharString name="brokenbar">
          -109 47 741 rmoveto
          15 -357 13 1 17 356 rlineto
          -16 -403 rmoveto
          -14 3 -22 -372 43 -3 rlineto
          endchar
        </CharString>
        <CharString name="bullet">
          -62 136 343 rmoveto
          25 -21 20 -24 -26 -20 -20 -25 -24 20 -21 26 24 21 21 24 vhcurveto
          endchar
        </CharString>
        <CharString name="c">
          -80 callsubr
          endchar
        </CharString>
        <CharString name="cacute">
          -80 callsubr
          -98 234 -84 callgsubr
        </CharString>
        <CharString name="caron">
          -70 173 683 -79 callsubr
        </CharString>
        <CharString name="ccaron">
          -80 callsubr
          -13 368 -79 callsubr
        </CharString>
        <CharString name="ccedilla">
          12 122 -89 -23 callsubr
          13 34 rlineto
          71 3 18 82 61 vvcurveto
          -65 callsubr
          245 -17 -100 vlineto
          -35 callsubr
          -63 0 -166 93 -12 hvcurveto
          -24 -55 -66 callsubr
        </CharString>
        <CharString name="ccircumflex">
          -80 callsubr
          -76 407 -87 callsubr
        </CharString>
        <CharString name="cdotaccent">
          -80 callsubr
          -70 258 -95 callgsubr
        </CharString>
        <CharString name="cedilla">
          -151 41 -132 -24 callgsubr
          -3 -4 0 -4 hhcurveto
          17 44 -15 3 -29 -67 -66 callsubr
        </CharString>
        <CharString name="cent">
          -40 132 667 rmoveto
          -50 -34 17 -152 -48 -4 -20 -38 -3 -43 rlinecurve
          -2 -37 0 -38 -37 vvcurveto
          -53 8 -83 66 -5 vhcurveto
          -129 18 130 vlineto
          39 8 18 48 39 vvcurveto
          5 -17 vlineto
          -27 -1 -2 -52 -38 hhcurveto
          -43 0 82 29 47 0 47 4 47 hvcurveto
          17 1 8 24 21 hhcurveto
          37 9 -56 -31 hvcurveto
          -10 -1 -10 -9 vvcurveto
          17 199 -17 -94 hlineto
          -8 14 -11 17 -22 2 rrcurveto
          endchar
        </CharString>
        <CharString name="circumflex">
          -70 108 690 -87 callsubr
        </CharString>
        <CharString name="colon">
          -98 108 -10 callgsubr
          298 vmoveto
          -49 callgsubr
          endchar
        </CharString>
        <CharString name="comma">
          -129 92 93 -100 callgsubr
        </CharString>
        <CharString name="copyright">
          1 160 455 rmoveto
          -11 -35 hlineto
          12 -6 -10 5 -14 hhcurveto
          -43 0 -53 -56 -27 0 -73 44 32 8 36 27 hvcurveto
          -11 hlineto
          -16 -4 -35 -21 -24 1 58 22 vhcurveto
          6 vlineto
          73 0 24 23 20 5 -29 -16 vhcurveto
          -27 11 vlineto
          50 -3 rmoveto
          67 -4 92 -79 -91 -2 -119 -59 -48 6 -106 80 90 0 117 56 vhcurveto
          -83 148 rmoveto
          55 0 -74 -87 -59 0 -90 -62 -60 0 86 55 72 0 97 67 hvcurveto
          endchar
        </CharString>
        <CharString name="currency">
          37 142 509 -10 callsubr
          118 -235 rmoveto
          -51 50 rlineto
          1 19 0 19 14 vvcurveto
          11 0 13 -1 12 vhcurveto
          49 49 -25 25 -28 -28 rlineto
          37 -7 -17 29 -38 hhcurveto
          -40 -19 -30 -36 -9 hvcurveto
          -27 28 -25 -24 46 -47 rlineto
          -2 -21 1 -20 -16 vvcurveto
          -10 0 -13 1 -13 vhcurveto
          -49 -49 25 -25 30 30 rlineto
          -34 8 18 -28 37 hhcurveto
          39 18 29 36 8 hvcurveto
          33 -32 rlineto
          endchar
        </CharString>
        <CharString name="d">
          68 -58 callsubr
          endchar
        </CharString>
        <CharString name="dagger">
          -36 82 752 rmoveto
          5 callgsubr
          3 -607 rlineto
          27 hlineto
          12 607 5 callsubr
          endchar
        </CharString>
        <CharString name="daggerdbl">
          -35 116 108 rmoveto
          9 461 5 callsubr
          -47 hlineto
          5 callgsubr
          2 -461 rlineto
          -71 -16 hlineto
          71 -1 1 -129 rlineto
          27 hlineto
          2 129 rlineto
          79 17 hlineto
          endchar
        </CharString>
        <CharString name="dcaron">
          140 -58 callsubr
          249 195 -100 callgsubr
        </CharString>
        <CharString name="dcroat">
          68 204 579 rmoveto
          -59 -35 59 hlineto
          3 -114 rlineto
          -50 callgsubr
          -9 431 rcurveline
          43 35 -44 hlineto
          -1 74 rlineto
          -54 callgsubr
          endchar
        </CharString>
        <CharString name="degree">
          -111 114 643 -75 callgsubr
        </CharString>
        <CharString name="dieresis">
          -102 141 636 -100 callsubr
        </CharString>
        <CharString name="divide">
          36 261 341 -14 callgsubr
          -83 -61 -25 callgsubr
          158 vmoveto
          -49 callgsubr
          endchar
        </CharString>
        <CharString name="dollar">
          -39 93 5 rmoveto
          17 130 hlineto
          39 6 30 43 37 81 -111 4 106 vvcurveto
          27 13 47 33 22 20 -24 -23 vhcurveto
          1 -55 -28 callsubr
          -3 166 -17 -1 1 -66 -11 13 -17 10 -22 2 rlinecurve
          20 168 -50 -34 15 -135 rlineto
          -44 -5 -28 -51 -43 -115 124 13 -95 vvcurveto
          -29 -17 -31 -33 -23 -24 14 26 22 15 16 23 7 8 -2 -2 6 vhcurveto
          6 16 rlineto
          3 -8 -10 2 -9 hhcurveto
          -32 -23 -23 -32 -34 28 -21 37 -2 hvcurveto
          endchar
        </CharString>
        <CharString name="dotaccent">
          -184 59 637 -95 callgsubr
        </CharString>
        <CharString name="dotlessi">
          -73 callgsubr
          endchar
        </CharString>
        <CharString name="dotlessj">
          -102 61 478 -81 callgsubr
          endchar
        </CharString>
        <CharString name="e">
          -105 callsubr
          endchar
        </CharString>
        <CharString name="eacute">
          -105 callsubr
          -5 233 -84 callgsubr
        </CharString>
        <CharString name="ebreve">
          -105 callsubr
          75 346 -95 callsubr
        </CharString>
        <CharString name="ecaron">
          -105 callsubr
          107 366 -79 callsubr
        </CharString>
        <CharString name="ecircumflex">
          -105 callsubr
          30 369 -87 callsubr
        </CharString>
        <CharString name="edieresis">
          -105 callsubr
          76 254 -100 callsubr
        </CharString>
        <CharString name="edotaccent">
          -105 callsubr
          50 263 -95 callgsubr
        </CharString>
        <CharString name="egrave">
          -105 callsubr
          -83 364 -63 callgsubr
        </CharString>
        <CharString name="eight">
          49 41 561 rmoveto
          -63 13 -52 68 -53 vhcurveto
          -66 -56 -27 -82 -71 vvcurveto
          -71 22 -118 96 100 15 143 79 73 -27 53 -59 50 vhcurveto
          53 35 21 74 61 vvcurveto
          66 -19 85 -83 -83 -24 -85 -68 vhcurveto
          112 -189 rmoveto
          43 -28 16 -55 -62 vvcurveto
          -34 2 -181 -65 -67 0 145 46 55 10 64 58 51 vhcurveto
          1 1 -1 1 hhcurveto
          -7 44 rmoveto
          -49 34 -10 50 60 vvcurveto
          39 5 97 58 50 3 -92 -36 -43 -17 -77 -37 -34 vhcurveto
          -1 -1 1 1 -1 hvcurveto
          endchar
        </CharString>
        <CharString name="ellipsis">
          90 91 -10 callgsubr
          111 hmoveto
          -48 callgsubr
          111 hmoveto
          -48 callgsubr
          endchar
        </CharString>
        <CharString name="emacron">
          -105 callsubr
          111 264 -41 callgsubr
        </CharString>
        <CharString name="emdash">
          299 521 391 rmoveto
          -500 -35 500 hlineto
          endchar
        </CharString>
        <CharString name="endash">
          -5 callgsubr
        </CharString>
        <CharString name="eng">
          59 107 415 -40 callgsubr
          -8 -533 rlineto
          -67 callsubr
          2 60 0 87 10 369 rrcurveto
          -85 callsubr
          endchar
        </CharString>
        <CharString name="eogonek">
          253 44 -44 callsubr
          14 9 19 11 13 hvcurveto
          8 9 1 9 hhcurveto
          -93 callgsubr
          -4 188 rlineto
          -92 callgsubr
          57 1 58 2 58 2 rlinecurve
          -7 callgsubr
          endchar
        </CharString>
        <CharString name="equal">
          81 284 266 -14 callgsubr
          185 vmoveto
          -244 -35 244 hlineto
          endchar
        </CharString>
        <CharString name="eth">
          29 98 686 rmoveto
          16 -25 13 -26 12 -28 -84 -40 rcurveline
          -25 vlineto
          92 44 13 -36 9 -38 7 -36 rlinecurve
          -16 callsubr
          116 -16 120 -53 110 hvcurveto
          53 25 rlineto
          25 vlineto
          -64 -31 rlineto
          -30 53 -26 22 0 vvcurveto
          33 -227 -32 callsubr
        </CharString>
        <CharString name="exclam">
          -95 46 682 rmoveto
          15 -585 rlineto
          18 hlineto
          28 585 rlineto
          -5 -660 -14 callsubr
        </CharString>
        <CharString name="exclamdown">
          -100 99 -138 rmoveto
          -15 585 1 callgsubr
          -28 -585 rlineto
          5 660 -13 callgsubr
        </CharString>
        <CharString name="f">
          -45 11 423 rmoveto
          -39 callgsubr
          122 -26 callgsubr
          -20 -4 callgsubr
          endchar
        </CharString>
        <CharString name="fi">
          117 226 455 rmoveto
          27 1 7 -30 -23 vvcurveto
          -1 -263 rlineto
          -46 -18 140 17 hlineto
          -45 1 4 332 rlineto
          -209 92 -26 callgsubr
          10 -4 callgsubr
          15 14 0 1 12 hvcurveto
          6 -373 -31 callsubr
          368 rlineto
          210 147 -33 callsubr
          endchar
        </CharString>
        <CharString name="five">
          49 268 242 rmoveto
          94 -9 130 -121 -22 -22 -5 -12 -18 vhcurveto
          30 224 rlineto
          138 17 -183 hlineto
          -37 -291 25 -1 rlineto
          27 13 27 16 29 hhcurveto
          95 6 -131 -68 -62 -9 -164 -90 -59 -15 71 46 9 0 10 1 10 hvcurveto
          -17 1 rlineto
          -1 -10 0 -10 -10 vvcurveto
          -65 23 -70 78 124 14 152 92 vhcurveto
          endchar
        </CharString>
        <CharString name="fl">
          106 220 684 rmoveto
          -59 callgsubr
          17 -14 vlineto
          -17 callsubr
          7 601 rlineto
          -158 hlineto
          -69 -26 -65 -53 -20 0 -50 1 -72 hvcurveto
          -41 7 callsubr
          -39 callgsubr
          152 hlineto
          29 3 60 41 vhcurveto
          endchar
        </CharString>
        <CharString name="four">
          37 214 328 rmoveto
          7 366 rlineto
          -49 hlineto
          -6 -366 rlineto
          -135 hlineto
          52 303 -17 3 -56 -323 rlineto
          156 hlineto
          -3 -259 rlineto
          -16 -1 -14 -18 -2 callsubr
          3 -20 callgsubr
          -19 -38 -1 29 1 hvcurveto
          5 262 rlineto
          40 17 hlineto
          endchar
        </CharString>
        <CharString name="fraction">
          11 211 635 -34 callgsubr
          endchar
        </CharString>
        <CharString name="g">
          -103 callsubr
          endchar
        </CharString>
        <CharString name="gbreve">
          -103 callsubr
          42 256 -95 callsubr
        </CharString>
        <CharString name="gcircumflex">
          -103 callsubr
          19 319 -87 callsubr
        </CharString>
        <CharString name="gcommaaccent">
          -103 callsubr
          -91 72 rmoveto
          -22 callsubr
        </CharString>
        <CharString name="gdotaccent">
          -103 callsubr
          -20 83 -95 callgsubr
        </CharString>
        <CharString name="germandbls">
          119 235 582 rmoveto
          58 -44 30 -50 -64 -26 -64 -53 -20 0 -20 -4 callgsubr
          18 13 1 10 hhcurveto
          6 -343 -18 callgsubr
          99 2 -4 536 rlineto
          29 2 54 41 29 15 -34 -27 vhcurveto
          -74 -45 -40 -61 vvcurveto
          -94 61 -30 52 -51 vhcurveto
          21 -20 23 -33 -43 vvcurveto
          -45 -22 -67 callgsubr
          -54 43 -35 52 71 48 53 78 58 -25 43 -51 44 hvcurveto
          -32 27 -68 24 79 56 57 23 89 vvcurveto
          endchar
        </CharString>
        <CharString name="grave">
          -107 43 705 -63 callgsubr
        </CharString>
        <CharString name="greater">
          9 189 314 rmoveto
          -167 -153 11 -15 206 149 rlineto
          40 vlineto
          -209 152 -12 -15 rlineto
          endchar
        </CharString>
        <CharString name="guillemotleft">
          47 -11 callsubr
          21 92 rmoveto
          79 77 -9 11 -122 -75 1 -29 131 -89 9 13 rlineto
          endchar
        </CharString>
        <CharString name="guillemotright">
          47 133 -9 callgsubr
          -199 -92 rmoveto
          9 -13 131 89 1 29 -122 75 -9 -11 79 -77 rlineto
          endchar
        </CharString>
        <CharString name="guilsinglleft">
          -62 -11 callsubr
          endchar
        </CharString>
        <CharString name="guilsinglright">
          -62 24 -9 callgsubr
          endchar
        </CharString>
        <CharString name="h">
          -60 callsubr
          endchar
        </CharString>
        <CharString name="hbar">
          -64 callsubr
          2 136 rlineto
          55 35 -54 hlineto
          2 82 -25 callsubr
          -1 -75 rlineto
          -50 -35 49 hlineto
          -6 -467 -30 callsubr
          endchar
        </CharString>
        <CharString name="hcircumflex">
          -60 callsubr
          115 539 rmoveto
          -32 hlineto
          -55 -107 11 -6 57 79 63 -81 9 5 rlineto
          endchar
        </CharString>
        <CharString name="hungarumlaut">
          -10 574 vmoveto
          -83 callsubr
          4 -131 -84 callgsubr
        </CharString>
        <CharString name="hyphen">
          -5 callsubr
        </CharString>
        <CharString name="i">
          -81 -34 callsubr
          endchar
        </CharString>
        <CharString name="iacute">
          -73 callgsubr
          -77 402 -84 callgsubr
        </CharString>
        <CharString name="ibreve">
          -73 callgsubr
          -20 512 -95 callsubr
        </CharString>
        <CharString name="icircumflex">
          -70 112 -76 callsubr
          -52 527 -87 callsubr
        </CharString>
        <CharString name="idieresis">
          -73 callgsubr
          -4 426 -100 callsubr
        </CharString>
        <CharString name="igrave">
          -73 callgsubr
          -162 532 -63 callgsubr
        </CharString>
        <CharString name="ij">
          60 -34 callsubr
          57 511 -58 callgsubr
        </CharString>
        <CharString name="imacron">
          -73 callgsubr
          17 440 -41 callgsubr
        </CharString>
        <CharString name="infinity">
          76 89 243 rmoveto
          31 26 20 23 22 hvcurveto
          -24 23 23 -21 28 hhcurveto
          34 20 40 30 32 -30 29 -31 -32 -25 -20 -21 -23 hvcurveto
          22 -22 -24 20 -27 hhcurveto
          -39 -19 -30 -36 -39 26 -25 39 hvcurveto
          -9 113 rmoveto
          21 20 -18 -22 20 hvcurveto
          -22 -23 -22 -21 -24 hhcurveto
          -17 -13 16 17 23 12 27 26 hvcurveto
          162 -91 rmoveto
          -20 -19 16 20 -20 hvcurveto
          23 22 18 22 20 hhcurveto
          21 14 -18 -20 -19 -15 -24 -21 hvcurveto
          endchar
        </CharString>
        <CharString name="iogonek">
          -81 129 46 -44 callsubr
          13 8 19 11 14 hvcurveto
          67 17 hlineto
          -45 1 -77 callsubr
          47 hlineto
          -7 callgsubr
          -21 566 -33 callsubr
          endchar
        </CharString>
        <CharString name="itilde">
          -73 callgsubr
          1 504 -97 callgsubr
        </CharString>
        <CharString name="j">
          -102 50 650 -58 callgsubr
        </CharString>
        <CharString name="jcircumflex">
          -102 61 478 -81 callgsubr
          -15 170 -87 callsubr
        </CharString>
        <CharString name="k">
          -69 callsubr
          endchar
        </CharString>
        <CharString name="kcommaaccent">
          -69 callsubr
          77 -321 -100 callgsubr
        </CharString>
        <CharString name="kgreenlandic">
          41 102 439 -29 callgsubr
          -5 -323 -82 callgsubr
          endchar
        </CharString>
        <CharString name="l">
          -92 -71 callsubr
          endchar
        </CharString>
        <CharString name="lacute">
          -92 -71 callsubr
          -66 691 -84 callgsubr
        </CharString>
        <CharString name="lcaron">
          -20 -71 callsubr
          76 611 -100 callgsubr
        </CharString>
        <CharString name="lcommaaccent">
          -92 -71 callsubr
          -36 -83 -100 callgsubr
        </CharString>
        <CharString name="ldotaccent">
          25 -71 callsubr
          98 321 rmoveto
          -49 callgsubr
          endchar
        </CharString>
        <CharString name="less">
          9 63 319 rmoveto
          167 153 -11 15 -206 -149 rlineto
          -40 vlineto
          209 -152 12 15 rlineto
          endchar
        </CharString>
        <CharString name="logicalnot">
          65 273 379 rmoveto
          -252 -20 196 -118 hlineto
          56 -1 rlineto
          endchar
        </CharString>
        <CharString name="lslash">
          -72 158 389 rmoveto
          -46 -25 4 337 rlineto
          -101 -18 hlineto
          17 1 rlineto
          28 6 -28 -22 hvcurveto
          -3 -296 -50 -27 rlineto
          -25 vlineto
          49 26 -2 -219 -48 callsubr
          17 -14 vlineto
          -17 callsubr
          3 239 46 25 rlineto
          endchar
        </CharString>
        <CharString name="m">
          173 114 460 rmoveto
          -101 3 rlineto
          -33 callgsubr
          -269 rlineto
          -33 -25 2 -25 vhcurveto
          -17 147 17 vlineto
          -22 -26 -9 callsubr
          3 244 rlineto
          27 4 20 13 17 hhcurveto
          23 16 -27 -21 hvcurveto
          -2 -188 -46 callgsubr
          -23 -25 -9 callsubr
          2 184 rlineto
          10 -3 11 -4 9 vhcurveto
          20 8 18 25 23 hhcurveto
          39 2 -36 -76 -1 hvcurveto
          -1 -59 -1 -160 -2 -64 -1 -16 -8 -14 -17 -1 rrcurveto
          -24 -17 147 17 hlineto
          -23 -1 -24 1 31 63 5 163 114 vvcurveto
          46 -33 35 -47 -30 -27 -20 -30 -15 vhcurveto
          15 -13 -18 11 -21 hhcurveto
          -21 -24 -10 -17 -14 hvcurveto
          endchar
        </CharString>
        <CharString name="macron">
          -62 181 653 -41 callgsubr
        </CharString>
        <CharString name="minus">
          -5 callsubr
        </CharString>
        <CharString name="mu">
          98 224 105 rmoveto
          105 -2 -102 callsubr
          -90 -6 -674 2 16 hvcurveto
          47 362 hlineto
          -10 12 14 -5 17 hhcurveto
          26 25 17 29 17 hvcurveto
          -1 -17 -1 -18 -18 vvcurveto
          endchar
        </CharString>
        <CharString name="multiply">
          5 224 250 rmoveto
          -75 74 73 73 -25 25 -73 -73 -72 73 -25 -24 73 -73 -76 -76 25 -25 76 76 75 -75 rlineto
          endchar
        </CharString>
        <CharString name="n">
          -92 callsubr
          endchar
        </CharString>
        <CharString name="nacute">
          -92 callsubr
          36 458 -84 callgsubr
        </CharString>
        <CharString name="napostrophe">
          131 72 653 -102 callgsubr
          107 -238 -98 callsubr
          endchar
        </CharString>
        <CharString name="nbspace">
          -43 endchar
        </CharString>
        <CharString name="ncaron">
          -92 callsubr
          133 572 -79 callsubr
        </CharString>
        <CharString name="ncommaaccent">
          -92 callsubr
          83 -123 -100 callgsubr
        </CharString>
        <CharString name="nine">
          68 144 243 rmoveto
          27 31 8 21 19 hvcurveto
          -41 -1 -33 -1 -10 vhcurveto
          -58 -4 -6 -105 -83 hhcurveto
          -44 -21 46 38 21 1 20 1 21 hvcurveto
          -17 1 -8 -185 -28 callsubr
          3 64 rlineto
          -28 16 27 -16 32 hhcurveto
          143 0 198 221 133 0 160 -117 -134 10 -192 -90 -94 2 -100 107 hvcurveto
          79 235 rmoveto
          -1 -8 0 -25 -31 vvcurveto
          -83 -2 -12 -72 -64 hhcurveto
          -60 0 108 118 50 0 167 73 70 -4 -172 -52 hvcurveto
          endchar
        </CharString>
        <CharString name="notequal">
          55 201 500 rmoveto
          -36 -84 rlineto
          -138 -35 123 hlineto
          -49 -115 rlineto
          -74 -35 59 hlineto
          -27 -65 17 -5 35 70 rlineto
          160 35 -142 hlineto
          59 115 rlineto
          83 35 -65 hlineto
          37 73 rlineto
          endchar
        </CharString>
        <CharString name="ntilde">
          -92 callsubr
          128 539 -97 callgsubr
        </CharString>
        <CharString name="numbersign">
          47 212 223 rmoveto
          50 hlineto
          2 32 rlineto
          -50 hlineto
          11 149 rlineto
          48 hlineto
          2 32 rlineto
          -48 2 callgsubr
          -54 2 callgsubr
          -52 hlineto
          -3 -32 rlineto
          53 hlineto
          -11 -149 rlineto
          -51 hlineto
          -2 -32 rlineto
          51 hlineto
          -11 -152 rlineto
          46 hlineto
          11 152 rlineto
          54 hlineto
          -11 -152 rlineto
          46 hlineto
          -76 333 rmoveto
          54 hlineto
          -11 -149 rlineto
          -54 hlineto
          endchar
        </CharString>
        <CharString name="o">
          -96 callsubr
          endchar
        </CharString>
        <CharString name="oacute">
          -96 callsubr
          2 49 -84 callgsubr
        </CharString>
        <CharString name="obreve">
          -96 callsubr
          49 156 -95 callsubr
        </CharString>
        <CharString name="ocircumflex">
          -96 callsubr
          16 164 -87 callsubr
        </CharString>
        <CharString name="odieresis">
          -96 callsubr
          65 60 -100 callsubr
        </CharString>
        <CharString name="oe">
          157 242 -28 callgsubr
          -71 -2 -32 -2 -66 -2 rlinecurve
          10 -13 -17 5 -20 hhcurveto
          -59 callsubr
          30 21 11 18 16 hvcurveto
          62 2 42 3 67 -55 callsubr
          -104 200 -32 callsubr
        </CharString>
        <CharString name="ogonek">
          -143 93 -90 -44 callsubr
          18 15 27 15 12 hvcurveto
          -9 7 rlineto
          -28 -12 -26 -29 -30 -23 callgsubr
        </CharString>
        <CharString name="ograve">
          -96 callsubr
          -92 178 -63 callgsubr
        </CharString>
        <CharString name="ohungarumlaut">
          -96 callsubr
          -56 49 -42 callsubr
        </CharString>
        <CharString name="omacron">
          -96 callsubr
          85 77 -41 callgsubr
        </CharString>
        <CharString name="one">
          -49 151 16 rmoveto
          -15 -13 19 14 1 hvcurveto
          12 645 rlineto
          -50 hlineto
          -81 -77 12 -13 69 66 -11 -618 rlineto
          -16 -1 -14 -17 -2 callsubr
          -4 1 17 rlineto
          endchar
        </CharString>
        <CharString name="onehalf">
          182 290 635 -36 callsubr
          280 30 -53 callsubr
        </CharString>
        <CharString name="onequarter">
          168 365 -38 callsubr
          -98 427 -36 callsubr
          endchar
        </CharString>
        <CharString name="onesuperior">
          -80 112 292 -47 callsubr
          endchar
        </CharString>
        <CharString name="ordfeminine">
          -37 119 350 rmoveto
          22 -2 26 -1 21 -1 rrcurveto
          16 vlineto
          -19 -12 -1 21 27 1 27 2 25 hvcurveto
          1 26 2 26 26 vvcurveto
          41 -16 60 -54 -43 -20 -40 -38 -20 6 -32 26 20 7 21 21 -1 vhcurveto
          -15 -1 rlineto
          -9 1 -2 -17 -10 hhcurveto
          -14 -4 27 10 27 14 34 32 28 11 -34 -24 1 hvcurveto
          -2 -24 -10 -25 -20 -18 -19 -16 rlinecurve
          -27 -22 -25 -21 -36 vvcurveto
          -27 14 -26 30 16 21 10 14 12 vhcurveto
          -32 -1 rmoveto
          -17 -7 21 15 28 21 23 20 22 hvcurveto
          7 9 8 8 7 8 -6 -106 rcurveline
          -16 -9 -14 -12 -10 hhcurveto
          endchar
        </CharString>
        <CharString name="ordmasculine">
          -43 171 509 rmoveto
          63 -1 85 -66 -77 2 -110 -56 -47 2 -95 68 75 -3 107 53 vhcurveto
          -68 133 -10 callsubr
          endchar
        </CharString>
        <CharString name="oslash">
          -61 callgsubr
          endchar
        </CharString>
        <CharString name="oslashacute">
          -61 callgsubr
          -4 60 -84 callgsubr
        </CharString>
        <CharString name="otilde">
          -96 callsubr
          76 142 -97 callgsubr
        </CharString>
        <CharString name="p">
          35 102 533 -16 callgsubr
          -526 -43 callgsubr
          4 217 rlineto
          -21 14 19 -16 -1 callgsubr
          -39 -27 -24 -52 -17 hvcurveto
          67 49 -1 callsubr
          -25 -22 25 20 -12 hvcurveto
          3 179 rlineto
          45 6 19 87 44 hhcurveto
          endchar
        </CharString>
        <CharString name="paragraph">
          150 275 11 rmoveto
          104 19 hlineto
          -9 1 -10 -1 -9 2 rrcurveto
          -16 2 -10 16 15 vvcurveto
          -9 570 rlineto
          36 33 0 25 -1 vhcurveto
          19 -205 vlineto
          -115 -38 -81 -103 -102 41 -78 107 -12 hvcurveto
          4 -247 rlineto
          -14 1 -13 -22 -15 hhcurveto
          -29 -19 106 hlineto
          -9 654 rlineto
          0 32 2 25 -1 vhcurveto
          -202 -152 rmoveto
          65 11 87 84 vhcurveto
          5 -337 rlineto
          -84 15 -16 100 70 vvcurveto
          endchar
        </CharString>
        <CharString name="parenleft">
          -34 210 749 rmoveto
          -161 -57 -20 -203 -153 vvcurveto
          -144 33 -152 119 -83 vhcurveto
          7 10 rlineto
          -87 83 -20 182 118 vvcurveto
          105 16 244 117 36 vhcurveto
          endchar
        </CharString>
        <CharString name="parenright">
          -34 -5 735 rmoveto
          117 -36 16 -244 -105 vvcurveto
          -118 -20 -182 -87 -83 vhcurveto
          7 -10 rlineto
          119 83 33 152 144 vvcurveto
          153 -20 203 -161 57 vhcurveto
          endchar
        </CharString>
        <CharString name="partialdiff">
          29 94 686 rmoveto
          41 -62 23 -76 14 -72 rrcurveto
          -16 callsubr
          141 -25 195 -111 104 hvcurveto
          33 -227 -32 callsubr
        </CharString>
        <CharString name="percent">
          173 -64 callgsubr
          endchar
        </CharString>
        <CharString name="period">
          -132 91 -10 callgsubr
          endchar
        </CharString>
        <CharString name="periodcentered">
          -126 94 363 rmoveto
          -49 callgsubr
          endchar
        </CharString>
        <CharString name="perthousand">
          346 -64 callgsubr
          248 -177 -75 callsubr
          endchar
        </CharString>
        <CharString name="plus">
          29 156 -6 callsubr
          endchar
        </CharString>
        <CharString name="plusminus">
          59 171 -6 callsubr
          137 -49 -14 callgsubr
          endchar
        </CharString>
        <CharString name="q">
          35 223 -119 rmoveto
          20 -7 37 -28 13 vhcurveto
          -4 -5 rlineto
          20 -12 8 -23 -23 vvcurveto
          -29 -14 -34 -34 -34 -15 28 30 52 27 47 11 51 vhcurveto
          96 23 1 176 78 vvcurveto
          117 0 140 -103 -120 0 -222 -89 -72 1 -147 98 -6 vhcurveto
          -19 -43 -36 -43 -51 vvcurveto
          -50 32 -36 51 42 27 31 42 vhcurveto
          -79 666 rmoveto
          53 0 -152 -39 -41 0 -204 -40 -50 hvcurveto
          1 4 0 4 4 vvcurveto
          47 -29 20 -44 7 vhcurveto
          -5 42 0 44 19 vvcurveto
          54 0 241 64 vhcurveto
          -7 -469 rmoveto
          -10 -2 -9 -2 -9 vhcurveto
          -25 4 -13 36 -7 40 rrcurveto
          26 -5 23 -19 -28 vvcurveto
          endchar
        </CharString>
        <CharString name="question">
          7 110 221 rmoveto
          110 124 27 145 vvcurveto
          65 -16 126 -86 -40 -36 -20 -36 -16 vhcurveto
          1 71 -11 callgsubr
          -2 -222 -28 callsubr
          32 1 32 31 vvcurveto
          39 33 53 46 65 0 -119 -44 vhcurveto
          -109 -93 -53 -99 vvcurveto
          -48 5 -49 4 -48 vhcurveto
          15 hlineto
          -2 39 -3 39 38 vvcurveto
          37 -199 -14 callsubr
        </CharString>
        <CharString name="questiondown">
          6 140 350 rmoveto
          -110 -124 -27 -145 vvcurveto
          -65 16 -126 86 40 36 20 36 16 vhcurveto
          -1 -71 -28 callsubr
          2 222 -11 callgsubr
          -32 -1 -32 -31 vvcurveto
          -39 -33 -53 -46 -65 0 119 44 vhcurveto
          109 93 53 99 vvcurveto
          48 -5 49 -4 48 vhcurveto
          -15 hlineto
          2 -39 3 -39 -38 vvcurveto
          -37 199 -13 callgsubr
        </CharString>
        <CharString name="quotedbl">
          -97 -3 callsubr
          25 7 rmoveto
          10 -166 12 2 12 167 rlineto
          endchar
        </CharString>
        <CharString name="quotedblbase">
          -39 92 93 -42 callgsubr
        </CharString>
        <CharString name="quotedblleft">
          -41 108 -41 callsubr
          -90 hmoveto
          -22 callsubr
        </CharString>
        <CharString name="quotedblright">
          -41 95 653 -42 callgsubr
        </CharString>
        <CharString name="quoteleft">
          -131 18 -41 callsubr
          endchar
        </CharString>
        <CharString name="quoteright">
          -131 95 653 -100 callgsubr
        </CharString>
        <CharString name="quotesinglbase">
          -129 92 93 -100 callgsubr
        </CharString>
        <CharString name="quotesingle">
          -156 -3 callsubr
          endchar
        </CharString>
        <CharString name="r">
          -90 callgsubr
          endchar
        </CharString>
        <CharString name="racute">
          -90 callgsubr
          4 291 -84 callgsubr
        </CharString>
        <CharString name="radical">
          156 296 698 rmoveto
          -153 -625 -64 262 rlineto
          -79 -16 55 hlineto
          76 -303 49 -4 161 668 rlineto
          59 17 hlineto
          endchar
        </CharString>
        <CharString name="rcaron">
          -90 callgsubr
          89 417 -79 callsubr
        </CharString>
        <CharString name="rcommaaccent">
          -90 callgsubr
          39 -332 -100 callgsubr
        </CharString>
        <CharString name="registered">
          32 236 411 rmoveto
          89 -1 103 -92 -107 2 -139 -79 -64 4 -119 93 97 4 115 76 vhcurveto
          -93 199 rmoveto
          65 0 -84 -115 -35 0 -41 -7 -34 hvcurveto
          9 vlineto
          -16 -6 12 13 hvcurveto
          -2 17 -1 17 17 vvcurveto
          -1 17 -9 15 -14 8 rrcurveto
          21 7 9 26 19 vvcurveto
          41 -23 18 -40 vhcurveto
          -7 -7 -1 -7 hhcurveto
          -24 -11 5 hlineto
          9 9 1 -12 hvcurveto
          -1 -161 rlineto
          -5 -4 -6 -6 vhcurveto
          -12 -12 67 hlineto
          1 11 rlineto
          -14 hlineto
          -5 -4 6 6 hvcurveto
          1 72 rlineto
          9 hlineto
          17 5 -26 -13 2 hvcurveto
          -5 1 -4 -6 vvcurveto
          -11 0 -13 1 -12 vhcurveto
          -18 3 19 -16 24 hhcurveto
          -41 -9 -18 -30 -40 hhcurveto
          -70 0 98 71 98 0 113 79 hvcurveto
          -22 -85 rmoveto
          1 1 0 -1 0 vvcurveto
          28 7 -21 -23 -18 -3 -29 -23 hvcurveto
          -11 hlineto
          31 1 29 31 vvcurveto
          endchar
        </CharString>
        <CharString name="ring">
          -147 96 643 -75 callgsubr
        </CharString>
        <CharString name="s">
          -86 callsubr
          endchar
        </CharString>
        <CharString name="sacute">
          -86 callsubr
          -91 251 -84 callgsubr
        </CharString>
        <CharString name="scaron">
          -86 callsubr
          -8 369 -79 callsubr
        </CharString>
        <CharString name="scedilla">
          4 106 -113 -23 callsubr
          15 38 rlineto
          65 5 37 51 75 vvcurveto
          58 -18 43 -51 44 vhcurveto
          -50 callsubr
          -6 242 -80 callgsubr
          -52 39 -34 49 -3 hvcurveto
          -25 -58 -66 callsubr
        </CharString>
        <CharString name="scircumflex">
          -86 callsubr
          -71 399 -87 callsubr
        </CharString>
        <CharString name="section">
          25 30 523 rmoveto
          -18 0 -16 2 -16 vhcurveto
          -2 -18 0 -17 -15 vvcurveto
          -85 14 -64 89 -50 vhcurveto
          -63 callsubr
          -31 vlineto
          17 -1 rlineto
          20 vlineto
          -39 callsubr
          16 -1 16 -2 16 vhcurveto
          2 18 1 17 17 vvcurveto
          -70 callsubr
          -18 hlineto
          -45 callgsubr
          hvcurveto
          103 -199 rmoveto
          41 -23 13 -42 4 -46 -8 9 -10 9 -11 7 -62 39 -21 30 -5 63 14 -17 19 -15 26 -14 rrcurveto
          endchar
        </CharString>
        <CharString name="semicolon">
          -96 108 393 rmoveto
          -49 callgsubr
          2 -300 -100 callgsubr
        </CharString>
        <CharString name="seven">
          8 38 699 rmoveto
          24 -17 vlineto
          -1 -183 -28 callsubr
          1 27 0 27 28 vvcurveto
          34 1 27 25 35 hhcurveto
          85 hlineto
          -4 -90 -20 -89 -20 -88 -27 -116 -20 -107 -9 -119 -1 -20 -2 -27 -26 -3 rrcurveto
          -1 -9 -10 1 -9 2 callsubr
          159 -1 -20 callgsubr
          -31 -2 -23 2 1 38 rrcurveto
          3 vlineto
          3 116 26 112 25 113 22 97 25 99 -1 100 rrcurveto
          endchar
        </CharString>
        <CharString name="six">
          68 91 518 rmoveto
          58 4 6 105 83 hhcurveto
          44 21 -46 -38 -21 -1 -20 -1 -21 hvcurveto
          17 -1 8 185 -11 callgsubr
          -3 -64 rlineto
          28 -16 -27 16 -32 hhcurveto
          -143 0 -198 -221 -133 0 -160 117 134 -10 192 90 94 -2 100 -107 -27 -32 -8 -21 -19 hvcurveto
          1 40 1 34 1 10 rrcurveto
          75 -71 rmoveto
          60 0 -108 -118 -50 0 -167 -73 -70 4 172 52 9 0 31 1 39 hvcurveto
          76 3 15 64 60 hhcurveto
          endchar
        </CharString>
        <CharString name="slash">
          42 222 675 rmoveto
          -211 -657 17 -5 246 661 rlineto
          endchar
        </CharString>
        <CharString name="space">
          -43 endchar
        </CharString>
        <CharString name="sterling">
          11 169 346 rmoveto
          -63 86 hlineto
          79 5 107 39 47 6 -101 -41 1 vhcurveto
          18 1 -6 172 -11 callgsubr
          -17 1 -18 -18 vvcurveto
          23 -9 -17 22 -29 hhcurveto
          -75 -7 -117 -102 hvcurveto
          -76 -44 -21 44 -207 vlineto
          -14 -13 -16 -15 vhcurveto
          -16 -18 201 142 -17 -95 hlineto
          -19 -7 -8 -18 -1 vhcurveto
          -55 hlineto
          -13 -4 11 12 hvcurveto
          213 63 vlineto
          endchar
        </CharString>
        <CharString name="t">
          -29 -62 callgsubr
          endchar
        </CharString>
        <CharString name="tbar">
          -29 197 321 rmoveto
          -88 hlineto
          1 112 -21 callsubr
          1 162 -17 callgsubr
          -1 -170 rlineto
          -53 -35 53 hlineto
          -1 -211 -46 callsubr
          1 214 rlineto
          88 hlineto
          endchar
        </CharString>
        <CharString name="tcaron">
          43 -62 callgsubr
          176 145 -100 callgsubr
        </CharString>
        <CharString name="tcommaaccent">
          -29 -62 callgsubr
          33 -613 -100 callgsubr
        </CharString>
        <CharString name="thorn">
          28 95 726 -16 callgsubr
          -719 -43 callgsubr
          3 218 rlineto
          -21 14 20 -17 -1 callgsubr
          -40 -28 -26 -57 -17 hvcurveto
          69 56 -1 callsubr
          -26 -23 27 20 -11 hvcurveto
          3 189 rlineto
          47 8 22 73 40 hhcurveto
          endchar
        </CharString>
        <CharString name="three">
          31 125 3 rmoveto
          102 18 128 77 61 -11 106 -76 13 hvcurveto
          58 28 14 67 58 vvcurveto
          59 -11 96 -79 -44 -34 -36 -38 -17 vhcurveto
          1 67 -18 1 -1 -182 -28 callsubr
          1 53 rlineto
          40 31 67 46 59 3 -92 -42 -43 -12 -100 -59 vhcurveto
          -14 -17 14 hlineto
          81 3 -109 -58 -56 -8 -119 -80 -54 -4 75 39 7 0 8 1 7 hvcurveto
          -18 1 rlineto
          -7 0 -7 -6 vvcurveto
          -60 14 -86 77 vhcurveto
          endchar
        </CharString>
        <CharString name="threequarters">
          178 375 -38 callsubr
          -314 72 -51 callgsubr
          216 355 -34 callgsubr
          endchar
        </CharString>
        <CharString name="threesuperior">
          -40 89 280 -51 callgsubr
          endchar
        </CharString>
        <CharString name="tilde">
          -44 181 675 -97 callgsubr
        </CharString>
        <CharString name="trademark">
          127 281 312 rmoveto
          -6 -4 -8 -8 -1 vhcurveto
          -16 -1 rlineto
          -12 vlineto
          85 3 rlineto
          12 -17 vlineto
          -6 -5 7 6 hvcurveto
          335 vlineto
          5 4 8 5 vhcurveto
          18 12 -86 -13 hlineto
          31 1 -1 -4 -22 vvcurveto
          -32 vlineto
          -39 -139 -33 93 rlineto
          18 vlineto
          14 10 -2 10 vhcurveto
          5 13 hlineto
          -76 -1 rlineto
          -13 vlineto
          13 9 1 3 hhcurveto
          7 4 -7 -6 hvcurveto
          6 -244 rlineto
          -6 -5 -9 -6 vhcurveto
          -18 hlineto
          1 -14 70 2 rlineto
          14 vlineto
          -17 -1 rlineto
          -5 -6 8 7 hvcurveto
          -3 147 26 -76 44 153 rlineto
          -135 88 rmoveto
          10 3 -8 -10 hvcurveto
          -15 14 71 -14 -22 -104 20 -12 -93 12 40 vlineto
          9 4 8 12 vhcurveto
          29 -308 hlineto
          -7 -7 -13 -10 vhcurveto
          -11 -13 75 13 -12 hlineto
          -9 -6 12 8 hvcurveto
          308 vlineto
          endchar
        </CharString>
        <CharString name="two">
          24 241 541 rmoveto
          65 -10 103 -87 -39 -37 -28 -36 -14 vhcurveto
          46 -17 vlineto
          -2 -159 rlineto
          18 47 hlineto
          35 1 24 67 43 hhcurveto
          58 13 -91 -50 -79 -10 -70 -62 -55 hvcurveto
          -93 -83 -1 -116 -115 vvcurveto
          196 hlineto
          9 139 -18 1 -1 -30 -2 -29 -2 -29 rlinecurve
          -25 -2 -18 -10 -23 hhcurveto
          -90 hlineto
          1 91 1 107 67 70 rrcurveto
          79 82 18 35 117 vvcurveto
          endchar
        </CharString>
        <CharString name="twosuperior">
          -42 165 598 -53 callsubr
        </CharString>
        <CharString name="u">
          -105 callgsubr
          endchar
        </CharString>
        <CharString name="uacute">
          -105 callgsubr
          -58 462 -84 callgsubr
        </CharString>
        <CharString name="ubreve">
          -105 callgsubr
          3 578 -95 callsubr
        </CharString>
        <CharString name="ucircumflex">
          -105 callgsubr
          -31 615 -87 callsubr
        </CharString>
        <CharString name="udieresis">
          -105 callgsubr
          18 507 -100 callsubr
        </CharString>
        <CharString name="ugrave">
          -105 callgsubr
          -127 595 -63 callgsubr
        </CharString>
        <CharString name="uhungarumlaut">
          -105 callgsubr
          -121 489 -42 callsubr
        </CharString>
        <CharString name="umacron">
          -105 callgsubr
          39 526 -41 callgsubr
        </CharString>
        <CharString name="underscore">
          65 271 -129 rmoveto
          -234 -25 234 hlineto
          endchar
        </CharString>
        <CharString name="uni00AD">
          -5 callgsubr
        </CharString>
        <CharString name="uni0312">
          -131 18 -41 callsubr
          endchar
        </CharString>
        <CharString name="uni0315">
          -171 72 653 -100 callgsubr
        </CharString>
        <CharString name="uni0326">
          -129 92 -81 -100 callgsubr
        </CharString>
        <CharString name="uogonek">
          60 203 105 rmoveto
          10 hlineto
          -19 -15 -13 -21 -22 -47 callgsubr
          -7 10 rlineto
          -44 callgsubr
          15 10 22 13 13 hvcurveto
          71 -1 -106 callsubr
          endchar
        </CharString>
        <CharString name="uring">
          -105 callgsubr
          -4 518 -75 callgsubr
        </CharString>
        <CharString name="utilde">
          -105 callgsubr
          30 585 -97 callgsubr
        </CharString>
        <CharString name="v">
          58 187 482 rmoveto
          -12 vlineto
          19 30 4 -29 hvcurveto
          -2 0 -1 -2 vvcurveto
          -73 -373 -62 376 rlineto
          1 -1 1 1 vvcurveto
          27 19 -2 20 vhcurveto
          12 vlineto
          -134 -1 rlineto
          -13 vlineto
          25 16 5 -29 5 hvcurveto
          71 -411 rlineto
          -1 0 -2 -2 vvcurveto
          -11 -5 -7 -11 vhcurveto
          -22 hlineto
          -1 -12 129 -1 rlineto
          13 vlineto
          -15 -25 -4 23 hvcurveto
          1 1 1 1 vvcurveto
          81 406 4 17 16 14 18 -1 rlinecurve
          19 13 hlineto
          endchar
        </CharString>
        <CharString name="w">
          -99 callgsubr
          endchar
        </CharString>
        <CharString name="wacute">
          -99 callgsubr
          -188 13 -84 callgsubr
        </CharString>
        <CharString name="wcircumflex">
          -99 callgsubr
          -163 170 -87 callsubr
        </CharString>
        <CharString name="wdieresis">
          -99 callgsubr
          -116 55 -100 callsubr
        </CharString>
        <CharString name="wgrave">
          -99 callgsubr
          -259 133 -63 callgsubr
        </CharString>
        <CharString name="x">
          44 64 463 rmoveto
          -1 32 -103 29 -93 vhcurveto
          -68 -167 rlineto
          -17 -7 -8 -12 -19 hhcurveto
          -24 -12 hlineto
          129 -1 rlineto
          12 vlineto
          -17 -33 -4 26 8 16 41 40 98 hvcurveto
          19 -63 16 -52 -2 vvcurveto
          -9 -8 -4 -8 vhcurveto
          -28 -12 138 hlineto
          1 13 -35 -2 1 -2 -11 30 rlinecurve
          -24 65 -19 57 -15 48 75 188 rcurveline
          6 16 13 15 19 -1 rrcurveto
          19 13 -125 -12 hlineto
          17 34 4 -27 -6 -27 -66 -40 -96 hvcurveto
          -23 76 -11 45 5 vvcurveto
          10 6 12 11 vhcurveto
          22 13 hlineto
          -139 1 rlineto
          -13 vlineto
          27 14 -4 -15 5 hvcurveto
          endchar
        </CharString>
        <CharString name="y">
          32 71 -93 callsubr
          endchar
        </CharString>
        <CharString name="yacute">
          50 89 -93 callsubr
          -9 389 -84 callgsubr
        </CharString>
        <CharString name="ycircumflex">
          32 71 -93 callsubr
          29 550 -87 callsubr
        </CharString>
        <CharString name="ydieresis">
          50 89 -93 callsubr
          73 441 -100 callsubr
        </CharString>
        <CharString name="yen">
          60 216 269 rmoveto
          -53 hlineto
          1 22 rlineto
          2 53 vlineto
          2 31 rlineto
          -50 hlineto
          69 256 10 30 16 4 17 -1 rlinecurve
          10 17 -115 -18 34 hlineto
          9 1 3 -9 -8 vvcurveto
          -4 -1 -4 -1 -4 vhcurveto
          1 vlineto
          -64 -234 -52 214 rlineto
          4 vlineto
          11 4 9 11 vhcurveto
          26 17 hlineto
          -130 2 -1 -14 rlineto
          24 16 1 -23 4 hvcurveto
          61 -248 rlineto
          -50 hlineto
          -2 -31 rlineto
          54 hlineto
          -1 -24 rlineto
          -55 -32 54 hlineto
          -4 -132 rlineto
          -10 -8 -20 -12 vhcurveto
          -25 1 rlineto
          -17 130 vlineto
          1 16 rlineto
          -22 hlineto
          -13 -9 20 12 hvcurveto
          5 130 rlineto
          53 hlineto
          endchar
        </CharString>
        <CharString name="ygrave">
          32 71 -93 callsubr
          -95 548 -63 callgsubr
        </CharString>
        <CharString name="z">
          -74 callsubr
          endchar
        </CharString>
        <CharString name="zacute">
          -74 callsubr
          -136 57 -84 callgsubr
        </CharString>
        <CharString name="zcaron">
          -74 callsubr
          -31 174 -79 callsubr
        </CharString>
        <CharString name="zdotaccent">
          -74 callsubr
          -95 83 -95 callgsubr
        </CharString>
        <CharString name="zero">
          63 272 369 rmoveto
          74 14 247 -123 -134 3 -319 -82 -73 9 -218 104 133 -6 286 85 vhcurveto
          -110 303 rmoveto
          60 0 -250 -43 -49 -1 -316 -76 -60 -1 227 44 51 2 336 76 hvcurveto
          endchar
        </CharString>
      <CharString index="0">
        96 348 38 rmoveto
        -107 callsubr
        159 23 rlineto
        -194 638 -56 callgsubr
        return
      </CharString>
      <CharString index="1">
        167 72 rmoveto
        33 -2 34 -1 34 -1 rrcurveto
        -101 callgsubr
        -56 -18 -72 callgsubr
        return
      </CharString>
      <CharString index="2">
        60 203 105 rmoveto
        105 -2 -106 callsubr
        return
      </CharString>
      <CharString index="3">
        103 354 658 rmoveto
        -99 callsubr
        -80 1 -211 116 101 7 173 71 vhcurveto
        -40 callsubr
        10 4 0 10 hhcurveto
        return
      </CharString>
      <CharString index="4">
        19 -17 17 -19 -19 -17 -17 -20 callsubr
        -17 20 1 vhcurveto
        2 hlineto
        -6 -29 -13 -21 -19 -22 rrcurveto
        38 13 34 55 40 vvcurveto
        return
      </CharString>
      <CharString index="5">
        rmoveto
        -103 callgsubr
        return
      </CharString>
      <CharString index="6">
        17 vlineto
        -30 1 -19 -2 36 83 9 82 82 vvcurveto
        64 -24 91 -83 -66 callgsubr
        vhcurveto
        -51 callsubr
        -17 -4 42 18 45 12 55 52 49 21 -53 -41 -2 -55 callgsubr
        22 -41 44 29 38 22 27 16 vhcurveto
        return
      </CharString>
      <CharString index="7">
        rmoveto
        -21 callgsubr
      </CharString>
      <CharString index="8">
        107 246 564 rmoveto
        -1 -12 rlineto
        23 -1 27 2 -30 vvcurveto
        -2 -57 -407 0 vhcurveto
        -43 350 1 callgsubr
        -55 -324 -20 383 rlineto
        28 -2 20 -4 22 hhcurveto
        12 vlineto
        -134 1 rlineto
        -12 vlineto
        27 15 4 -31 2 hvcurveto
        33 -453 rlineto
        -11 1 -7 -3 -10 hhcurveto
        -29 -12 hlineto
        116 -1 rlineto
        12 vlineto
        -11 -1 -23 1 3 15 43 256 rcurveline
        30 -228 6 -55 -1 vvcurveto
        -8 -4 -8 -8 vhcurveto
        -23 -12 128 11 hlineto
        -30 1 rlineto
        -14 -11 15 12 1 hvcurveto
        71 470 rlineto
        16 3 15 11 16 hhcurveto
        8 4 0 -1 9 hvcurveto
        12 vlineto
        return
      </CharString>
      <CharString index="9">
        71 268 587 rmoveto
        -56 callsubr
        -69 40 -58 66 84 32 66 91 vhcurveto
        -49 -23 -74 callgsubr
        -154 0 -154 -155 vvcurveto
        return
      </CharString>
      <CharString index="10">
        rmoveto
        -19 2 -1 -48 -29 -29 -17 55 -39 hhcurveto
        -37 -31 -23 -47 -8 1 -8 callgsubr
        hvcurveto
        17 -1 rlineto
        24 -2 6 34 31 34 9 -56 40 hhcurveto
        42 20 35 44 9 -1 -15 callsubr
        hvcurveto
        endchar
      </CharString>
      <CharString index="11">
        74 174 343 rmoveto
        -68 276 rlineto
        -1 4 0 3 3 vvcurveto
        15 7 12 15 vhcurveto
        31 17 hlineto
        -159 2 -1 -13 rlineto
        29 19 2 -32 7 hvcurveto
        76 -312 rlineto
        2 -10 1 -11 -11 vvcurveto
        -8 -244 rlineto
        -14 -11 -26 -17 4 callgsubr
        -18 159 vlineto
        1 17 rlineto
        -25 hlineto
        -18 -12 26 16 hvcurveto
        8 232 -20 callgsubr
        93 349 rlineto
        51 14 26 -9 27 -6 callgsubr
        -139 -1 rlineto
        -17 39 vlineto
        14 1 4 -12 -11 vvcurveto
        -6 -1 -5 -1 -5 vhcurveto
        return
      </CharString>
      <CharString index="12">
        rmoveto
        16 -13 14 -16 -17 -13 -14 -16 -17 13 -13 17 16 13 13 -19 callgsubr
      </CharString>
      <CharString index="13">
        62 218 226 rmoveto
        -68 -8 -68 -68 vvcurveto
        -70 50 -54 71 vhcurveto
        4 5 1 5 hhcurveto
        10 vlineto
        -58 11 -28 41 57 62 7 62 62 vvcurveto
        54 -19 59 -60 25 vhcurveto
        66 32 17 86 70 vvcurveto
        107 -36 63 -115 -35 -35 -2 -1 -34 -24 callsubr
        -590 rlineto
        -15 -10 -18 -16 -2 vhcurveto
        -28 -2 rlineto
        -31 callgsubr
        -15 -13 17 14 1 hvcurveto
        4 268 16 -1 14 1 13 3 rlinecurve
        41 -23 16 -45 -39 vvcurveto
        -95 451 rmoveto
        4 hlineto
        104 1 -10 -107 -74 vvcurveto
        -73 -18 -72 -85 -6 vhcurveto
        return
      </CharString>
      <CharString index="14">
        1 137 rlineto
        -77 callgsubr
        195 49 1 -78 callgsubr
        return
      </CharString>
      <CharString index="15">
        -78 callsubr
        -227 -6 1 -17 36 1 20 -3 1 -41 rlinecurve
        7 -315 rlineto
        -3 vlineto
        -40 -20 2 -34 vhcurveto
        1 -18 return
      </CharString>
      <CharString index="16">
        105 281 656 rmoveto
        55 1 25 -6 45 hhcurveto
        18 vlineto
        -159 -1 rlineto
        -17 36 vlineto
        25 10 -30 -20 hvcurveto
        -9 -489 -145 498 -95 7 callsubr
        26 33 6 0 callsubr
        -582 rlineto
        -14 -12 -20 -16 4 callgsubr
        -17 vlineto
        130 -2 rlineto
        17 -29 vlineto
        -14 1 -12 19 14 vvcurveto
        5 522 return
      </CharString>
      <CharString index="17">
        41 133 21 rmoveto
        -15 -11 19 14 hvcurveto
        1 183 rlineto
        28 hlineto
        42 17 -65 -34 2 hvcurveto
        3 -42 -3 -43 7 -41 rrcurveto
        -42 7 42 -39 54 hhcurveto
        15 vlineto
        -39 1 -12 27 -3 37 -3 42 -3 43 -1 43 -2 45 -26 38 -42 18 rrcurveto
        61 6 23 68 52 vvcurveto
        99 -54 39 -94 vhcurveto
        -37 -36 -1 -37 2 callsubr
        26 33 6 -37 hvcurveto
        -3 -400 rlineto
        -13 -12 -20 -16 vhcurveto
        -28 -17 1 callsubr
        -2 1 18 rlineto
        -54 230 rmoveto
        2 234 rlineto
        1 3 3 0 4 hhcurveto
        69 18 -55 -59 -45 -8 -76 -60 hvcurveto
        return
      </CharString>
      <CharString index="18">
        -72 callsubr
        -235 -12 callsubr
        29 26 2 -38 hvcurveto
        -584 vlineto
        -36 -26 -2 -29 -4 callsubr
        return
      </CharString>
      <CharString index="19">
        18 207 770 rmoveto
        -73 callsubr
        -11 0 -10 -10 vvcurveto
        17 -1 rlineto
        7 0 7 6 vvcurveto
        -39 callsubr
        -70 callsubr
        return
      </CharString>
      <CharString index="20">
        -91 callgsubr
        163 -542 18 -2 rlineto
        return
      </CharString>
      <CharString index="21">
        -57 -89 callsubr
        return
      </CharString>
      <CharString index="22">
        40 265 132 rmoveto
        -83 callgsubr
        -139 -1 -227 130 80 21 76 67 hvcurveto
        return
      </CharString>
      <CharString index="23">
        -84 callsubr
        endchar
      </CharString>
      <CharString index="24">
        5 -1 6 6 vvcurveto
        -15 hlineto
        -44 1 -6 -88 -61 hhcurveto
        -97 0 222 131 82 0 237 68 70 9 -128 -51 2 hvcurveto
        17 1 -7 211 -11 callgsubr
        2 -81 rlineto
        34 -16 -24 37 -42 hhcurveto
        -114 1 -222 -135 return
      </CharString>
      <CharString index="25">
        rlineto
        -32 -1 -25 -1 -24 2 callsubr
        146 -2 -20 callgsubr
        -33 -1 -15 1 1 39 3 165 rcurveline
        56 -39 23 -65 16 -60 rrcurveto
        -63 15 13 -146 88 hhcurveto
        35 11 24 23 4 hvcurveto
        -12 2 rlineto
        -16 -5 -4 -17 -18 hhcurveto
        -60 -13 174 41 -11 hvcurveto
        -13 48 -28 45 -42 34 rrcurveto
        -1 7 6 0 2 hhcurveto
        54 42 40 56 hvcurveto
        47 -36 18 41 vvcurveto
        27 26 7 10 2 vhcurveto
        -2 10 rlineto
        -40 -28 -31 -39 hvcurveto
        -30 21 -23 -30 vvcurveto
        -43 -31 -37 -43 -4 -3 0 1 -4 vhcurveto
        -11 6 -11 4 -10 3 rrcurveto
        return
      </CharString>
      <CharString index="26">
        rmoveto
        -18 -19 -1 -18 hhcurveto
        -17 17 vlineto
        27 7 -25 -22 hvcurveto
        -3 vlineto
        -2 -106 -3 -106 -4 -106 -2 -66 -4 -65 -3 -66 rrcurveto
        -67 callsubr
        3 65 4 66 3 66 4 125 3 126 4 126 rrcurveto
        return
      </CharString>
      <CharString index="27">
        -19 -1 2 -73 rlineto
        28 -15 -25 16 -32 hhcurveto
        -59 -39 -47 -89 -94 61 -50 52 -51 hvcurveto
        21 -20 16 -33 -43 vvcurveto
        -45 -15 -67 callgsubr
        return
      </CharString>
      <CharString index="28">
        rmoveto
        -77 callsubr
        140 17 hlineto
        return
      </CharString>
      <CharString index="29">
        rlineto
        13 6 -17 -11 hvcurveto
        -38 17 132 -17 vlineto
        -61 2 -11 10 -59 hhcurveto
        return
      </CharString>
      <CharString index="30">
        -17 hlineto
        -1 -69 rlineto
        -23 -23 -28 -24 -1 vhcurveto
        -1 -19 -19 0 -20 hhcurveto
        -5 return
      </CharString>
      <CharString index="31">
        55 291 666 rmoveto
        -263 -2 -1 -166 rlineto
        17 108 hlineto
        17 14 24 20 vhcurveto
        124 1 -183 -654 244 11 -4 162 -17 -1 rlineto
        1 -32 1 -32 -32 vvcurveto
        -28 -15 -21 -29 -1 vhcurveto
        -124 -6 167 609 rlineto
        29 8 13 -3 27 hhcurveto
        return
      </CharString>
      <CharString index="32">
        rmoveto
        27 -22 21 -26 -26 -22 -21 -27 -26 22 -22 26 26 22 22 26 vhcurveto
        -27 hmoveto
        -14 -7 -20 -14 -15 -6 20 14 15 6 19 15 14 7 -19 -15 vhcurveto
        endchar
      </CharString>
      <CharString index="33">
        -27 callgsubr
        -45 -16 61 49 vhcurveto
        461 vlineto
        -53 callgsubr
        return
      </CharString>
      <CharString index="34">
        -81 110 -76 callsubr
        return
      </CharString>
      <CharString index="35">
        rmoveto
        -29 -13 35 24 64 72 49 37 52 hvcurveto
        -9 -176 rlineto
        -27 -14 -26 -21 -18 hhcurveto
        return
      </CharString>
      <CharString index="36">
        148 233 -28 callgsubr
        -171 -6 rlineto
        0 0 -5 1 -46 vhcurveto
        14 -15 -21 10 -26 hhcurveto
        -66 callgsubr
        hvcurveto
        -51 callsubr
        -25 -6 42 18 45 22 55 52 49 17 -53 -41 2 -55 callgsubr
        23 -33 43 -8 vhcurveto
        43 -8 39 25 18 26 75 2 28 3 75 -55 callsubr
        -47 -194 rmoveto
        -14 -30 -32 -27 -31 7 rrcurveto
        -28 6 -14 29 24 vvcurveto
        68 81 52 34 55 vhcurveto
        return
      </CharString>
      <CharString index="37">
        173 199 704 rmoveto
        16 75 1 16 hhcurveto
        32 30 -16 -37 3 hvcurveto
        3 -87 -36 callgsubr
        157 -303 -3 -97 callsubr
        0 3 34 241 vhcurveto
        113 hlineto
        25 -186 1 -9 -2 vvcurveto
        -38 -16 7 -31 -4 vhcurveto
        2 -17 195 7 rlineto
        172 -17 vlineto
        -1 -102 rlineto
        -32 2 -24 -21 -31 hhcurveto
        -19 -1 -49 341 rlineto
        15 21 1 6 hhcurveto
        24 11 -8 -26 hvcurveto
        -52 18 vlineto
        -1 179 rlineto
        -18 -43 hlineto
        -17 -6 -16 -20 vhcurveto
        -53 hlineto
        -88 276 rmoveto
        24 -179 16 -118 11 -88 rrcurveto
        -106 hlineto
        return
      </CharString>
      <CharString index="38">
        -59 callsubr
        115 -5 167 81 return
      </CharString>
      <CharString index="39">
        -108 -17 hlineto
        26 32 6 -37 return
      </CharString>
      <CharString index="40">
        -69 -53 -39 -31 32 39 36 26 25 36 6 7 -1 -2 6 vhcurveto
        5 17 rlineto
        2 -7 -8 callgsubr
        hhcurveto
        -45 -35 -32 -46 return
      </CharString>
      <CharString index="41">
        -66 -30 -60 -58 -30 10 -49 38 28 10 29 30 -1 return
      </CharString>
      <CharString index="42">
        50 129 657 rmoveto
        19 1 17 18 19 hhcurveto
        18 16 hlineto
        -161 -9 rlineto
        -16 vlineto
        27 28 0 -35 hvcurveto
        -2 vlineto
        -22 -607 rlineto
        -19 -1 -16 -18 -20 hhcurveto
        -18 -17 1 callsubr
        2 rlineto
        16 -19 vlineto
        -19 -18 19 19 1 hvcurveto
        10 257 10 24 63 -230 rlineto
        -66 18 39 -86 81 hhcurveto
        12 12 2 3 11 hvcurveto
        -2 11 -74 -7 -32 94 -15 56 rlinecurve
        -82 296 130 305 rlineto
        23 10 25 4 23 hhcurveto
        23 17 hlineto
        -156 -9 -30 callgsubr
        15 34 3 -22 -16 -103 -230 -40 -90 hvcurveto
        return
      </CharString>
      <CharString index="43">
        174 498 -75 callsubr
        193 -40 -34 callgsubr
        45 -392 -75 callsubr
        return
      </CharString>
      <CharString index="44">
        rmoveto
        -43 -35 128 -106 8 10 rlineto
        endchar
      </CharString>
      <CharString index="45">
        111 670 rmoveto
        -17 callgsubr
        -2 -416 -46 callsubr
        2 361 -21 callsubr
        return
      </CharString>
      <CharString index="46">
        41 235 615 rmoveto
        -28 -74 rlineto
        14 -15 -19 9 -25 hhcurveto
        -37 callsubr
        -42 1 -70 23 -49 hvcurveto
        -33 -87 17 -5 29 68 rlineto
        -21 16 22 -14 32 hhcurveto
        115 -5 167 81 54 -1 64 -17 47 hvcurveto
        45 105 rlineto
        -136 -502 rmoveto
        -28 -14 30 40 -7 hvcurveto
        105 246 rlineto
        2 -31 0 -36 -36 vvcurveto
        -84 0 -129 -58 vhcurveto
        6 445 rmoveto
        22 13 -20 -33 7 hvcurveto
        -103 -271 rlineto
        -1 27 0 28 24 vvcurveto
        105 0 140 62 vhcurveto
        return
      </CharString>
      <CharString index="47">
        -43 callsubr
        11 621 -27 callsubr
        -7 -355 rlineto
        -135 hlineto
        -2 344 -29 callsubr
        4 -595 -26 callsubr
        return
      </CharString>
      <CharString index="48">
        28 6 -28 -22 hvcurveto
        -6 -541 -48 callsubr
        return
      </CharString>
      <CharString index="49">
        rmoveto
        17 -114 rlineto
        16 hlineto
        27 149 rlineto
        -49 -207 -81 callgsubr
        endchar
      </CharString>
      <CharString index="50">
        85 257 675 rmoveto
        -4 -12 rlineto
        32 -18 -31 18 -41 -7 callsubr
        -21 4 -19 6 -18 vhcurveto
        -13 -41 17 -5 8 22 rlineto
        -27 18 29 -18 37 hhcurveto
        84 32 66 91 hvcurveto
        425 vlineto
        38 102 rlineto
        -211 -92 rmoveto
        -53 callgsubr
        -21 vlineto
        -124 -387 rlineto
        124 -55 -27 callgsubr
        -41 -17 51 46 -3 vhcurveto
        124 332 rlineto
        return
      </CharString>
      <CharString index="51">
        rmoveto
        23 -175 17 -122 11 -88 rrcurveto
        -106 hlineto
        return
      </CharString>
      <CharString index="52">
        hvcurveto
        -124 -164 -18 -114 vvcurveto
        -40 return
      </CharString>
      <CharString index="53">
        -66 -18 -1 -17 hhcurveto
        -17 18 vlineto
        28 4 -27 -23 1 hvcurveto
        -70 -127 rmoveto
        30 29 -37 -29 15 hvcurveto
        6 -276 rlineto
        -22 -17 -29 -24 -24 hhcurveto
        -63 0 158 57 38 -3 135 56 hvcurveto
        return
      </CharString>
      <CharString index="54">
        64 19 52 50 45 10 -52 -59 vhcurveto
        return
      </CharString>
      <CharString index="55">
        77 286 -35 callgsubr
        -2 -291 rlineto
        -52 -25 52 hlineto
        -2 -290 -37 callgsubr
        -93 -4 rmoveto
        -74 hlineto
        2 331 rlineto
        106 9 -96 -223 -208 -9 -152 -110 hvcurveto
        2 323 rlineto
        74 hlineto
        endchar
      </CharString>
      <CharString index="56">
        rmoveto
        65 10 77 48 34 -4 62 -42 12 hvcurveto
        32 17 5 39 32 vvcurveto
        37 -6 58 -51 -21 -20 -16 -18 -12 vhcurveto
        1 30 -17 1 rlineto
        -113 16 33 vlineto
        23 18 39 25 32 2 -54 -23 -25 -7 -58 -32 vhcurveto
        -11 -15 11 hlineto
        45 2 -63 -33 -33 -5 -68 -44 -30 -2 43 21 4 0 3 2 10 hvcurveto
        -18 -15 hlineto
        -36 8 -53 48 vhcurveto
        return
      </CharString>
      <CharString index="57">
        36 -25 -29 18 -32 hhcurveto
        -85 -7 -111 -71 -124 1 -130 103 27 34 19 22 21 hvcurveto
        1 -41 rlineto
        67 17 0 1 17 hvcurveto
        17 vlineto
        -38 -1 -13 7 -1 41 return
      </CharString>
      <CharString index="58">
        19 -16 16 -19 -20 -16 -16 -20 callsubr
        -16 20 19 16 16 20 vhcurveto
        return
      </CharString>
      <CharString index="59">
        20 -16 16 -19 -20 -16 -16 -20 -19 16 -16 20 19 16 16 19 vhcurveto
        return
      </CharString>
      <CharString index="60">
        vvcurveto
        -33 22 -20 32 16 20 8 12 10 vhcurveto
        return
      </CharString>
      <CharString index="61">
        rlineto
        -33 -25 2 -25 1 vhcurveto
        -18 147 17 vlineto
        return
      </CharString>
      <CharString index="62">
        -1 -138 rlineto
        33 -9 -23 41 -49 hhcurveto
        -89 -8 -118 -65 return
      </CharString>
      <CharString index="63">
        -5 -7 -11 -5 -10 hhcurveto
        -16 -16 16 24 return
      </CharString>
      <CharString index="64">
        -1 -13 -10 -21 -16 -1 rlinecurve
        -1 -9 -10 0 -9 hhcurveto
        -18 6 callgsubr
        8 -1 18 rlineto
        -1 0 callgsubr
        18 14 1 hvcurveto
        return
      </CharString>
      <CharString index="65">
        -102 callgsubr
        90 hmoveto
        -21 callgsubr
      </CharString>
      <CharString index="66">
        rmoveto
        -181 -28 181 hlineto
        endchar
      </CharString>
      <CharString index="67">
        rmoveto
        39 19 20 17 25 hhcurveto
        24 8 -24 -19 hvcurveto
        return
      </CharString>
      <CharString index="68">
        15 14 0 1 12 hvcurveto
        6 -343 -31 callsubr
        338 rlineto
        23 hlineto
        24 10 -21 -22 hvcurveto
        -76 17 vlineto
        -1 184 -11 callgsubr
        -49 1 -9 1 -47 hhcurveto
        -1 return
      </CharString>
      <CharString index="69">
        vlineto
        -19 -17 -21 -20 vhcurveto
        -18 -17 hlineto
        218 4 rlineto
        return
      </CharString>
      <CharString index="70">
        rlineto
        -36 -15 -4 -32 vhcurveto
        -18 vlineto
        97 6 rlineto
        167 10 0 184 177 vvcurveto
        return
      </CharString>
      <CharString index="71">
        -28 callsubr
        -1 return
      </CharString>
      <CharString index="72">
        365 rmoveto
        171 1 174 -168 vhcurveto
        -102 -18 hlineto
        33 23 4 -44 hvcurveto
        return
      </CharString>
      <CharString index="73">
        rmoveto
        -211 -557 17 -5 236 551 rlineto
        return
      </CharString>
      <CharString index="74">
        -17 vlineto
        37 -1 13 -5 -40 vvcurveto
        -3 return
      </CharString>
      <CharString index="75">
        hlineto
        -13 -12 -22 -15 vhcurveto
        -28 -17 159 17 -28 hlineto
        -15 -11 21 13 hvcurveto
        return
      </CharString>
      <CharString index="76">
        -17 6 callgsubr
        8 -1 17 rlineto
        -15 callgsubr
        return
      </CharString>
      <CharString index="77">
        rlineto
        -17 vlineto
        return
      </CharString>
      <CharString index="78">
        rmoveto
        18 7 18 21 vhcurveto
        18 16 hlineto
        -146 1 -30 callgsubr
        30 20 -1 -36 -1 hvcurveto
        return
      </CharString>
      <CharString index="79">
        -2 callgsubr
        -78 callsubr
        return
      </CharString>
      <CharString index="80">
        rmoveto
        -56 -12 -57 -51 return
      </CharString>
      <CharString index="81">
        hlineto
        29 2 54 41 29 15 -24 -27 -15 -5 -22 -11 -12 vhcurveto
        9 -8 rlineto
        16 14 6 29 20 vvcurveto
        41 -27 27 -41 -64 -22 -64 -53 -20 0 return
      </CharString>
      <CharString index="82">
        rmoveto
        -48 callgsubr
        return
      </CharString>
      <CharString index="83">
        rmoveto
        26 25 19 28 22 -16 14 -22 hvcurveto
        return
      </CharString>
      <CharString index="84">
        -47 callgsubr
        endchar
      </CharString>
      <CharString index="85">
        30 1 50 -41 -43 -4 -58 -31 return
      </CharString>
      <CharString index="86">
        -103 callgsubr
        endchar
      </CharString>
      <CharString index="87">
        rlineto
        17 vlineto
        return
      </CharString>
      <CharString index="88">
        17 vhcurveto
        endchar
      </CharString>
      <CharString index="89">
        rlineto
        -16 1 -16 -21 -18 hhcurveto
        -17 -18 hlineto
        return
      </CharString>
      <CharString index="90">
        -49 -42 -1 -120 rlineto
        -62 -17 62 hlineto
        return
      </CharString>
      <CharString index="91">
        rmoveto
        -108 -3 callgsubr
        vlineto
        25 33 5 -36 hvcurveto
        -9 return
      </CharString>
      <CharString index="92">
        -9 -10 -1 -9 hhcurveto
        return
      </CharString>
      <CharString index="93">
        rmoveto
        -244 -35 244 hlineto
        return
      </CharString>
      <CharString index="94">
        rmoveto
        -13 callsubr
        -12 callgsubr
        vhcurveto
        endchar
      </CharString>
      <CharString index="95">
        16 -14 14 -16 -16 -14 -14 -16 return
      </CharString>
      <CharString index="96">
        rlineto
        -17 hlineto
        return
      </CharString>
      <CharString index="97">
        95 -25 callgsubr
        return
      </CharString>
      <CharString index="98">
        255 rmoveto
        8 -14 132 90 1 29 -124 78 -7 -14 79 -77 rlineto
        return
      </CharString>
      <CharString index="99">
        -8 1 -8 return
      </CharString>
      <CharString index="100">
        -15 -15 -11 -19 -19 -47 callgsubr
        return
      </CharString>
      <CharString index="101">
        hhcurveto
        17 vlineto
        return
      </CharString>
      <CharString index="102">
        99 321 391 rmoveto
        -300 -35 300 hlineto
        endchar
      </CharString>
      <CharString index="103">
        1 -72 vhcurveto
        -41 7 callsubr
        return
      </CharString>
      <CharString index="104">
        1 rlineto
        -18 return
      </CharString>
      <CharString index="105">
        535 rmoveto
        return
      </CharString>
      <CharString index="106">
        25 hhcurveto
        95 7 118 118 64 0 106 -72 return
      </CharString>
      <CharString index="107">
        -15 callgsubr
        -15 -13 return
      </CharString>
      <CharString index="108">
        rlineto
        -18 hlineto
        return
      </CharString>
      <CharString index="109">
        hlineto
        10 139 rlineto
        -46 hlineto
        -10 -139 rlineto
        return
      </CharString>
      <CharString index="110">
        -160 2 rlineto
        return
      </CharString>
      <CharString index="111">
        vhcurveto
        -28 1 rlineto
        return
      </CharString>
      <CharString index="112">
        1 -166 rlineto
        -69 -16 hlineto
        69 -1 return
      </CharString>
      <CharString index="113">
        vlineto
        160 return
      </CharString>
      <CharString index="114">
        rlineto
        17 -14 vlineto
        -19 return
      </CharString>
      <CharString index="115">
        vhcurveto
        -17 -1 return
      </CharString>
</ttFont>
